<svg width="32" height="32" viewBox="0 0 32 32" fill="none" xmlns="http://www.w3.org/2000/svg">
<path d="M25.472 7.93999C25.6085 7.80072 25.7714 7.69008 25.9511 7.61456C26.1309 7.53903 26.324 7.50012 26.519 7.50012C26.714 7.50012 26.907 7.53903 27.0868 7.61456C27.2666 7.69008 27.4295 7.80072 27.566 7.93999C28.138 8.51799 28.146 9.45199 27.586 10.04L15.76 24.02C15.6257 24.1674 15.4628 24.2859 15.2811 24.3682C15.0995 24.4505 14.903 24.4949 14.7036 24.4987C14.5042 24.5024 14.3061 24.4654 14.1215 24.39C13.9369 24.3146 13.7697 24.2023 13.63 24.06L6.43396 16.768C6.15643 16.485 6.00098 16.1044 6.00098 15.708C6.00098 15.3116 6.15643 14.931 6.43396 14.648C6.57045 14.5087 6.73336 14.3981 6.91314 14.3226C7.09292 14.247 7.28596 14.2081 7.48096 14.2081C7.67596 14.2081 7.869 14.247 8.04878 14.3226C8.22856 14.3981 8.39147 14.5087 8.52796 14.648L14.632 20.834L25.432 7.98399C25.4444 7.96853 25.4578 7.95384 25.472 7.93999Z" fill="#D7E026"/>
</svg>
