<svg width="32" height="32" viewBox="0 0 32 32" fill="none" xmlns="http://www.w3.org/2000/svg">
<path d="M27.5 3.5H4.5C3.94687 3.5 3.5 3.94687 3.5 4.5V27.5C3.5 28.0531 3.94687 28.5 4.5 28.5H27.5C28.0531 28.5 28.5 28.0531 28.5 27.5V4.5C28.5 3.94687 28.0531 3.5 27.5 3.5ZM24.6125 10.7969H22.6156C21.05 10.7969 20.7469 11.5406 20.7469 12.6344V15.0437H24.4844L23.9969 18.8156H20.7469V28.5H16.85V18.8188H13.5906V15.0437H16.85V12.2625C16.85 9.03437 18.8219 7.275 21.7031 7.275C23.0844 7.275 24.2688 7.37813 24.6156 7.425V10.7969H24.6125Z" fill="#E9E9E9"/>
</svg>
