<svg width="49" height="48" viewBox="0 0 49 48" fill="none" xmlns="http://www.w3.org/2000/svg">
<path d="M24.5 16C27.2614 16 29.5 13.7614 29.5 11C29.5 8.23858 27.2614 6 24.5 6C21.7386 6 19.5 8.23858 19.5 11C19.5 13.7614 21.7386 16 24.5 16Z" stroke="black" stroke-width="3" stroke-linecap="round" stroke-linejoin="round"/>
<path d="M24.4999 42.736L34.6899 32.544C35.2695 31.9719 35.7302 31.2908 36.0455 30.5399C36.3608 29.789 36.5245 28.9832 36.5272 28.1688C36.5298 27.3544 36.3713 26.5475 36.0609 25.7946C35.7504 25.0416 35.2942 24.3576 34.7183 23.7817C34.1424 23.2058 33.4583 22.7495 32.7054 22.4391C31.9525 22.1286 31.1456 21.9702 30.3312 21.9728C29.5168 21.9754 28.711 22.1391 27.9601 22.4544C27.2092 22.7697 26.5281 23.2305 25.9559 23.81L24.4999 25.264L23.0439 23.81C22.4718 23.2305 21.7907 22.7697 21.0398 22.4544C20.2889 22.1391 19.483 21.9754 18.6686 21.9728C17.8542 21.9702 17.0474 22.1286 16.2944 22.4391C15.5415 22.7495 14.8574 23.2058 14.2816 23.7817C13.7057 24.3576 13.2494 25.0416 12.939 25.7946C12.6285 26.5475 12.4701 27.3544 12.4727 28.1688C12.4753 28.9832 12.639 29.789 12.9543 30.5399C13.2696 31.2908 13.7303 31.9719 14.3099 32.544L24.4999 42.736Z" stroke="black" stroke-width="3" stroke-linecap="round" stroke-linejoin="round"/>
</svg>
