<svg width="49" height="48" viewBox="0 0 49 48" fill="none" xmlns="http://www.w3.org/2000/svg">
<path d="M6.5 38C9.23635 36.4202 12.3403 35.5884 15.5 35.5884C18.6597 35.5884 21.7637 36.4202 24.5 38C27.2363 36.4202 30.3403 35.5884 33.5 35.5884C36.6597 35.5884 39.7637 36.4202 42.5 38M6.5 12C9.23635 10.4202 12.3403 9.58844 15.5 9.58844C18.6597 9.58844 21.7637 10.4202 24.5 12C27.2363 10.4202 30.3403 9.58844 33.5 9.58844C36.6597 9.58844 39.7637 10.4202 42.5 12M6.5 12V38M24.5 12V38M42.5 12V38" stroke="black" stroke-width="3" stroke-linecap="round" stroke-linejoin="round"/>
</svg>
