<svg width="32" height="32" viewBox="0 0 32 32" fill="none" xmlns="http://www.w3.org/2000/svg">
<path fill-rule="evenodd" clip-rule="evenodd" d="M12.5723 11.9587H17.5243V14.4254C18.2377 13.0067 20.067 11.7321 22.815 11.7321C28.083 11.7321 29.3337 14.5561 29.3337 19.7374V29.3334H24.0003V20.9174C24.0003 17.9667 23.287 16.3027 21.471 16.3027C18.9523 16.3027 17.9057 18.0961 17.9057 20.9161V29.3334H12.5723V11.9587ZM3.42699 29.1067H8.76033V11.7321H3.42699V29.1067ZM9.52433 6.06675C9.52452 6.51378 9.43587 6.95639 9.26351 7.36886C9.09115 7.78133 8.83853 8.15543 8.52033 8.46942C7.87553 9.11025 7.00274 9.46895 6.09366 9.46675C5.18618 9.46614 4.31541 9.10835 3.66966 8.47075C3.35261 8.1557 3.10084 7.78118 2.92878 7.36866C2.75673 6.95613 2.66776 6.51371 2.66699 6.06675C2.66699 5.16408 3.02699 4.30008 3.67099 3.66275C4.31617 3.02429 5.18731 2.66635 6.09499 2.66675C7.00433 2.66675 7.87633 3.02542 8.52033 3.66275C9.16299 4.30008 9.52433 5.16408 9.52433 6.06675Z" fill="#E9E9E9"/>
</svg>
