<svg width="298" height="288" viewBox="0 0 298 288" fill="none" xmlns="http://www.w3.org/2000/svg">
<path d="M164.914 105.483L149.454 7.23062L140.766 8.6023L154.301 98.898C118.075 107.241 117.004 117.968 117.004 117.968C152.233 102.529 164.914 105.483 164.914 105.483Z" fill="white"/>
<path d="M36.5645 117.418L21.7357 27.3215L13.0349 28.6847L28.4869 126.941C28.4869 126.941 39.6452 120.234 77.918 124.125C77.918 124.125 73.5999 114.24 36.5645 117.418Z" fill="white"/>
<path d="M164.071 11.6909L155.212 13.0949L170.542 108.718C130.234 115.31 122.824 120.381 121.668 122.537L180.064 113.357L164.071 11.6909Z" fill="white"/>
<path d="M24.1202 131.747L9.35608 36.03L0.493164 37.4215L16.4861 139.092L74.8901 129.903C73.1164 128.194 64.5052 125.655 24.1202 131.747Z" fill="white"/>
<path fill-rule="evenodd" clip-rule="evenodd" d="M133.628 0.5C133.628 0.5 109.682 4.26673 88.8482 25.7359L88.8606 25.73L83.6642 45.0764C83.6642 45.0764 82.9066 46.9199 81.434 47.7705C81.434 47.7705 80.9861 48.206 78.2433 48.8819C78.2433 48.8819 74.5484 49.9111 74.0397 50.0046C74.0397 50.0046 68.6477 51.6729 68.1754 51.5424C68.1754 51.5424 67.1501 51.5714 66.54 50.3789C66.54 50.3789 65.7541 48.8484 67.2721 47.9655C67.2721 47.9655 74.8501 45.9026 75.0939 45.7722C75.0939 45.7722 75.4114 45.6503 75.3213 45.1825C75.2317 44.7101 74.8172 44.747 74.6459 44.853C74.559 44.9024 72.8505 45.3545 71.0974 45.8185L71.0963 45.8188L71.0959 45.8189C69.2465 46.3083 67.348 46.8107 67.2516 46.8672C67.2416 46.8728 67.2256 46.8811 67.2045 46.892L67.2039 46.8923C66.8307 47.0849 64.8661 48.0987 65.4774 50.4157C65.4774 50.4157 66.117 52.5155 67.9639 52.5399C67.9639 52.5399 67.9724 52.6816 67.8096 53.3009C67.6508 53.907 64.4039 61.4555 64.2854 61.5207C64.267 61.5302 64.2386 61.5718 64.1971 61.6326C63.9904 61.9354 63.4585 62.7143 62.218 62.3753C60.7289 61.9806 60.7612 60.4626 60.7612 60.4626L62.9591 52.2388L65.0339 44.5065C65.0339 44.5065 65.2012 43.8681 65.9299 43.3469C65.9299 43.3469 69.0957 41.9673 69.5351 41.715L75.2396 39.3425L76.9901 38.6223C76.9901 38.6223 77.2668 38.476 77.4006 37.9628C77.5411 37.4467 80.1231 30.0968 80.2109 29.847L80.2128 29.8416L80.213 29.841C52.3246 13.2876 26.0329 17.4167 26.0329 17.4167L40.7722 111.127C66.2392 109.369 83.944 117.225 92.4708 122.262L97.5813 103.558C97.5813 103.558 98.3219 101.715 99.8036 100.864C99.8036 100.864 100.243 100.429 102.994 99.7528C102.994 99.7528 106.693 98.7236 107.201 98.6255C107.201 98.6255 112.581 96.9573 113.058 97.0911C113.058 97.0911 114.091 97.0673 114.697 98.2637C114.697 98.2637 115.478 99.7936 113.96 100.669C113.96 100.669 106.383 102.728 106.143 102.866C106.143 102.866 105.826 102.992 105.915 103.452C105.997 103.924 106.412 103.883 106.591 103.782C106.682 103.73 108.546 103.236 110.379 102.751L110.381 102.75L110.385 102.749L110.388 102.749C112.154 102.281 113.889 101.821 113.985 101.771C113.997 101.764 114.017 101.754 114.045 101.739C114.447 101.526 116.365 100.513 115.764 98.2189C115.764 98.2189 115.121 96.1231 113.269 96.0948C113.269 96.0948 113.256 95.9564 113.427 95.3332C113.59 94.7191 116.842 87.1825 116.952 87.1173C116.969 87.1075 116.995 87.0682 117.034 87.0109C117.236 86.7117 117.769 85.9204 119.023 86.2588C120.509 86.6535 120.468 88.1715 120.468 88.1715L118.278 96.3998L116.203 104.12C116.203 104.12 116.036 104.771 115.303 105.296C115.303 105.296 112.137 106.667 111.694 106.911L104.243 110.02C104.243 110.02 103.97 110.15 103.832 110.667C103.755 110.955 102.582 116.411 101.557 121.192L101.364 122.094C107.252 115.036 121.919 100.764 148.376 94.198L133.628 0.5ZM70.6744 76.9276C73.1458 76.1903 75.6319 75.4962 78.1187 74.8019L78.1191 74.8018C80.3252 74.1859 82.532 73.5698 84.7298 72.9231C85.1478 72.7957 85.5205 72.5231 85.8949 72.2494C86.2133 72.0166 86.5328 71.783 86.8823 71.6371C87.4646 71.3978 88.2211 71.2708 88.804 71.4381C89.1374 71.5396 89.5888 72.5897 89.4504 72.736C89.0524 73.184 88.4093 73.5299 87.8151 73.6881C87.4039 73.7949 86.9758 73.8345 86.5487 73.874C86.0957 73.9159 85.6439 73.9577 85.2146 74.0794C82.0674 74.8978 78.9302 75.7643 75.794 76.6305C75.4058 76.7377 75.0177 76.8449 74.6296 76.952C73.7756 77.1834 72.9218 77.4376 72.0027 77.7113L72.0015 77.7116C71.432 77.8812 70.8374 78.0583 70.2021 78.242C70.3851 78.3256 70.5209 78.3921 70.6287 78.445C70.804 78.5309 70.9054 78.5806 71.0163 78.6083C72.1543 78.9202 73.293 79.2313 74.4321 79.5425L74.4529 79.5482L74.456 79.549L74.4564 79.5491L74.4569 79.5493L74.4573 79.5494C78.7349 80.718 83.0174 81.888 87.2815 83.101C88.2829 83.3817 89.0847 83.4101 90.0526 82.8969C98.826 78.2177 107.624 73.5786 116.439 68.9436C117.676 68.2959 118.96 67.7052 120.24 67.1157L120.241 67.1154C120.561 66.968 120.881 66.8207 121.2 66.6726L121.203 66.6564L121.206 66.6279L121.211 66.5983C121.22 66.5306 121.229 66.4634 121.233 66.3919L121.009 66.3615L121.008 66.3615C120.39 66.2776 119.769 66.1933 119.149 66.1311C117.324 65.9654 115.499 65.7993 113.673 65.6332L113.654 65.6315L113.635 65.6298L113.616 65.6281L113.597 65.6263L113.578 65.6246L113.559 65.6228L113.539 65.621L113.532 65.6203C105.589 64.8975 97.6454 64.1747 89.7033 63.4864C88.9872 63.4172 88.2052 63.5193 87.5213 63.7467C80.376 66.1963 73.246 68.6788 66.1165 71.1613C63.5013 72.0673 60.889 72.994 58.2823 73.9187L58.2813 73.9191C57.8097 74.0864 57.3382 74.2536 56.8669 74.4207C58.4521 75.0143 60.0599 75.4788 61.6561 75.9399C62.8503 76.2848 64.0379 76.6279 65.2047 77.0218C67.11 77.6682 68.819 77.485 70.6744 76.9276ZM72.3233 83.1362C72.1886 82.2108 72.0515 81.2697 71.9275 80.305C73.3825 80.6941 74.8155 81.0756 76.2322 81.4529L76.2429 81.4557L76.258 81.4597L76.2593 81.4601C79.9602 82.4456 83.5498 83.4014 87.1305 84.3827C88.2992 84.6917 89.312 84.7166 90.4642 84.0974C94.4894 81.9041 98.539 79.7723 102.592 77.6388L102.593 77.6382L102.596 77.6367L102.599 77.6351L102.602 77.6336C104.064 76.8637 105.527 76.0935 106.99 75.3201C107.191 75.2151 107.402 75.1217 107.659 75.0081C107.859 74.9193 108.088 74.8182 108.361 74.6896C108.449 76.2252 108.531 77.5909 108.61 78.8934C108.765 81.4637 108.906 83.7878 109.041 86.686C109.065 87.1544 73.1279 91.4271 73.0185 89.1396C72.9091 87.158 72.6219 85.1857 72.3234 83.1365L72.3233 83.1362ZM65.8237 97.0467C64.0001 96.7456 63.602 96.2409 64.1634 94.4587C64.6162 93.0228 65.1517 91.6066 65.6877 90.189C65.9901 89.3892 66.2927 88.589 66.5807 87.7846C66.7514 87.3122 66.8534 86.8041 66.9181 86.2955C67.0861 84.9831 67.2433 83.6624 67.4008 82.3404C67.5372 81.1948 67.6737 80.0482 67.8174 78.9052C67.8226 78.8254 67.8612 78.7534 67.9127 78.6572C67.9454 78.5963 67.9832 78.5258 68.021 78.4374C68.3892 78.5357 68.7484 78.6222 69.154 78.7198C69.2862 78.7516 69.4234 78.7846 69.5673 78.8196C69.5179 79.1513 69.479 79.4746 69.441 79.791C69.3632 80.4376 69.2888 81.0552 69.1358 81.6559C68.021 85.8232 68.1389 90.0272 68.5461 94.2631C68.5519 94.3298 68.5585 94.3981 68.5652 94.4672C68.6143 94.9756 68.6681 95.5325 68.4605 95.9194C68.1837 96.4365 67.5974 96.8641 67.061 97.1402C66.8269 97.2544 66.4911 97.1823 66.1645 97.1123C66.0481 97.0873 65.9328 97.0626 65.8237 97.0467Z" fill="white"/>
<path d="M8.48186 170.969C4.52501 170.969 2.46777 168.407 2.46777 163.994V154.709H4.86864V163.925C4.86864 166.944 6.12635 168.568 8.52722 168.568C11.0432 168.568 12.2317 167.012 12.2317 164.085V154.709H14.6332V164.039C14.6332 168.523 12.4608 170.969 8.48186 170.969Z" fill="white"/>
<path d="M25.6324 170.717V163.925C25.6324 161.501 24.7177 160.632 23.1629 160.632C21.5848 160.632 20.6928 161.753 20.6928 163.697V170.717H18.3379V158.711H20.6928V159.855C21.2877 158.986 22.4768 158.46 23.7112 158.46C26.5016 158.46 27.9879 160.289 27.9879 163.834V170.717H25.6324Z" fill="white"/>
<path d="M31.4851 158.712H33.8406V170.718H31.4851V158.712ZM32.6742 157.156C31.8287 157.156 31.1426 156.47 31.1426 155.647C31.1426 154.801 31.8287 154.115 32.6742 154.115C33.4975 154.115 34.1836 154.801 34.1836 155.647C34.1836 156.47 33.4975 157.156 32.6742 157.156Z" fill="white"/>
<path d="M43.1702 170.42C42.5986 170.74 41.7979 170.969 40.8606 170.969C39.1906 170.969 38.162 169.94 38.162 167.79V160.861H36.4473V158.712H38.162V155.282L40.4716 154.047V158.712H43.4446V160.861H40.4716V167.379C40.4716 168.499 40.8379 168.819 41.7066 168.819C42.3241 168.819 43.0102 168.59 43.4446 168.339L43.1702 170.42Z" fill="white"/>
<path d="M63.0654 170.718L58.4689 162.507L55.4953 166.098V170.718H53.1631V154.71H55.4953V160.198C55.4953 160.793 55.4727 162.531 55.45 163.033C55.7244 162.622 56.7763 161.296 57.3025 160.633L62.0362 154.71H64.7575L60.0697 160.519L65.7866 170.718H63.0654Z" fill="white"/>
<path d="M72.0516 160.587C70.4741 160.587 69.5129 161.685 69.3077 163.606H74.8874C74.7734 161.959 73.996 160.587 72.0516 160.587ZM77.197 165.549H69.2617C69.5129 167.859 70.8166 168.843 72.2801 168.843C73.2866 168.843 74.0873 168.477 74.8874 167.882L76.2823 169.391C75.2304 170.398 73.9727 170.969 72.1434 170.969C69.3303 170.969 66.9521 168.705 66.9521 164.726C66.9521 160.655 69.1018 158.46 72.2115 158.46C75.6194 158.46 77.2656 161.227 77.2656 164.474C77.2656 164.909 77.2196 165.298 77.197 165.549Z" fill="white"/>
<path d="M87.4413 162.211C86.9151 161.501 85.8179 160.633 84.6282 160.633C82.9362 160.633 82.021 161.914 82.021 164.452C82.021 167.47 82.9821 168.796 84.7195 168.796C85.8406 168.796 86.8238 168.042 87.4413 167.264V162.211ZM84.0793 175.131L83.2792 173.348C86.6639 173.187 87.3954 172.272 87.3954 169.78V169.574C86.5267 170.374 85.5429 170.969 84.2857 170.969C81.7238 170.969 79.666 169.094 79.666 164.52C79.666 160.404 81.9297 158.46 84.3997 158.46C85.6115 158.46 86.7552 159.1 87.3954 159.833V158.711H89.7509V169.574C89.7509 173.233 88.424 174.994 84.0793 175.131Z" fill="white"/>
<path d="M93.3405 158.712H95.696V170.718H93.3405V158.712ZM94.5296 157.156C93.6836 157.156 92.998 156.47 92.998 155.647C92.998 154.801 93.6836 154.115 94.5296 154.115C95.353 154.115 96.0391 154.801 96.0391 155.647C96.0391 156.47 95.353 157.156 94.5296 157.156Z" fill="white"/>
<path d="M106.17 165.595C105.53 165.275 104.706 165.069 103.425 165.069C101.916 165.069 100.956 165.755 100.956 166.853C100.956 168.042 101.711 168.843 103.265 168.843C104.524 168.843 105.621 168.065 106.17 167.31V165.595ZM106.17 170.717V169.529C105.346 170.352 104.18 170.969 102.876 170.969C100.933 170.969 98.7148 169.871 98.7148 166.922C98.7148 164.246 100.773 163.033 103.494 163.033C104.615 163.033 105.506 163.194 106.17 163.491V162.6C106.17 161.296 105.37 160.564 103.906 160.564C102.671 160.564 101.711 160.792 100.773 161.319L99.858 159.535C101.002 158.826 102.282 158.46 103.974 158.46C106.65 158.46 108.479 159.764 108.479 162.485V170.717H106.17Z" fill="white"/>
<path d="M117.603 170.42C117.031 170.74 116.231 170.969 115.293 170.969C113.623 170.969 112.595 169.94 112.595 167.79V160.861H110.88V158.712H112.595V155.282L114.904 154.047V158.712H117.877V160.861H114.904V167.379C114.904 168.499 115.271 168.819 116.139 168.819C116.757 168.819 117.443 168.59 117.877 168.339L117.603 170.42Z" fill="white"/>
<path d="M127.619 165.595C126.979 165.275 126.155 165.069 124.875 165.069C123.366 165.069 122.405 165.755 122.405 166.853C122.405 168.042 123.16 168.843 124.715 168.843C125.973 168.843 127.07 168.065 127.619 167.31V165.595ZM127.619 170.717V169.529C126.796 170.352 125.629 170.969 124.326 170.969C122.382 170.969 120.164 169.871 120.164 166.922C120.164 164.246 122.222 163.033 124.943 163.033C126.064 163.033 126.956 163.194 127.619 163.491V162.6C127.619 161.296 126.819 160.564 125.355 160.564C124.12 160.564 123.16 160.792 122.222 161.319L121.307 159.535C122.451 158.826 123.731 158.46 125.423 158.46C128.099 158.46 129.929 159.764 129.929 162.485V170.717H127.619Z" fill="white"/>
<path d="M140.607 170.717V163.925C140.607 161.501 139.692 160.632 138.137 160.632C136.559 160.632 135.667 161.753 135.667 163.697V170.717H133.312V158.711H135.667V159.855C136.262 158.986 137.451 158.46 138.686 158.46C141.476 158.46 142.962 160.289 142.962 163.834V170.717H140.607Z" fill="white"/>
<path d="M164.822 170.718V162.256C164.822 161.296 164.846 159.901 164.868 159.444C164.686 159.901 164.228 161.044 163.84 161.959L159.952 170.969L156.11 161.959C155.721 161.044 155.264 159.901 155.081 159.444C155.103 159.901 155.126 161.296 155.126 162.256V170.718H152.862V154.71H155.332L158.923 163.239C159.311 164.155 159.814 165.32 160.02 165.984C160.249 165.32 160.706 164.177 161.095 163.239L164.617 154.71H167.178V170.718H164.822Z" fill="white"/>
<path d="M177.88 165.595C177.24 165.275 176.416 165.069 175.135 165.069C173.626 165.069 172.666 165.755 172.666 166.853C172.666 168.042 173.421 168.843 174.975 168.843C176.234 168.843 177.331 168.065 177.88 167.31V165.595ZM177.88 170.717V169.529C177.056 170.352 175.89 170.969 174.586 170.969C172.643 170.969 170.425 169.871 170.425 166.922C170.425 164.246 172.483 163.033 175.204 163.033C176.325 163.033 177.216 163.194 177.88 163.491V162.6C177.88 161.296 177.08 160.564 175.616 160.564C174.381 160.564 173.421 160.792 172.483 161.319L171.568 159.535C172.712 158.826 173.992 158.46 175.684 158.46C178.36 158.46 180.189 159.764 180.189 162.485V170.717H177.88Z" fill="white"/>
<path d="M190.869 170.717V163.925C190.869 161.501 189.954 160.632 188.399 160.632C186.821 160.632 185.929 161.753 185.929 163.697V170.717H183.574V155.281L185.929 154.047V159.855C186.524 158.986 187.713 158.46 188.948 158.46C191.738 158.46 193.224 160.289 193.224 163.834V170.717H190.869Z" fill="white"/>
<path d="M203.49 165.595C202.85 165.275 202.027 165.069 200.746 165.069C199.237 165.069 198.276 165.755 198.276 166.853C198.276 168.042 199.031 168.843 200.586 168.843C201.844 168.843 202.941 168.065 203.49 167.31V165.595ZM203.49 170.717V169.529C202.667 170.352 201.5 170.969 200.197 170.969C198.253 170.969 196.035 169.871 196.035 166.922C196.035 164.246 198.093 163.033 200.814 163.033C201.935 163.033 202.827 163.194 203.49 163.491V162.6C203.49 161.296 202.69 160.564 201.226 160.564C199.991 160.564 199.031 160.792 198.093 161.319L197.178 159.535C198.322 158.826 199.602 158.46 201.295 158.46C203.97 158.46 205.8 159.764 205.8 162.485V170.717H203.49Z" fill="white"/>
<path d="M213.072 170.969C211.449 170.969 209.687 170.329 208.476 169.437L209.55 167.653C210.671 168.43 211.928 168.842 213.049 168.842C214.536 168.842 215.244 168.361 215.244 167.515C215.244 166.601 214.193 166.166 212.455 165.503C209.871 164.497 208.933 163.628 208.933 161.73C208.933 159.58 210.625 158.46 213.026 158.46C214.536 158.46 216.022 159.009 217.097 159.786L216.068 161.593C215.084 160.907 214.101 160.563 212.958 160.563C211.814 160.563 211.311 161.021 211.311 161.661C211.311 162.256 211.723 162.69 213.53 163.399C216.205 164.428 217.577 165.161 217.577 167.424C217.577 170.077 215.428 170.969 213.072 170.969Z" fill="white"/>
<path d="M220.709 158.712H223.064V170.718H220.709V158.712ZM221.898 157.156C221.052 157.156 220.366 156.47 220.366 155.647C220.366 154.801 221.052 154.115 221.898 154.115C222.721 154.115 223.407 154.801 223.407 155.647C223.407 156.47 222.721 157.156 221.898 157.156Z" fill="white"/>
<path d="M230.542 170.969C228.918 170.969 227.157 170.329 225.945 169.437L227.02 167.653C228.141 168.43 229.398 168.842 230.519 168.842C232.005 168.842 232.714 168.361 232.714 167.515C232.714 166.601 231.663 166.166 229.924 165.503C227.34 164.497 226.402 163.628 226.402 161.73C226.402 159.58 228.095 158.46 230.496 158.46C232.005 158.46 233.492 159.009 234.567 159.786L233.537 161.593C232.554 160.907 231.57 160.563 230.428 160.563C229.284 160.563 228.781 161.021 228.781 161.661C228.781 162.256 229.193 162.69 230.999 163.399C233.675 164.428 235.047 165.161 235.047 167.424C235.047 170.077 232.897 170.969 230.542 170.969Z" fill="white"/>
<path d="M248.446 170.717H246.434L244.811 164.657C244.559 163.742 244.307 162.668 244.193 162.096C244.079 162.668 243.827 163.765 243.576 164.681L241.975 170.717H239.962L236.669 158.711H239.002L240.42 164.543C240.648 165.458 240.9 166.601 241.014 167.173C241.151 166.578 241.426 165.481 241.677 164.543L243.278 158.711H245.176L246.8 164.565C247.052 165.503 247.303 166.578 247.441 167.173C247.577 166.578 247.806 165.458 248.034 164.543L249.452 158.711H251.785L248.446 170.717Z" fill="white"/>
<path d="M260.521 165.595C259.881 165.275 259.058 165.069 257.777 165.069C256.268 165.069 255.307 165.755 255.307 166.853C255.307 168.042 256.062 168.843 257.617 168.843C258.875 168.843 259.972 168.065 260.521 167.31V165.595ZM260.521 170.717V169.529C259.698 170.352 258.532 170.969 257.228 170.969C255.285 170.969 253.066 169.871 253.066 166.922C253.066 164.246 255.124 163.033 257.845 163.033C258.967 163.033 259.858 163.194 260.521 163.491V162.6C260.521 161.296 259.721 160.564 258.258 160.564C257.023 160.564 256.062 160.792 255.124 161.319L254.21 159.535C255.353 158.826 256.634 158.46 258.326 158.46C261.002 158.46 262.831 159.764 262.831 162.485V170.717H260.521Z" fill="white"/>
<path d="M9.19094 192.944H4.84568V198.249H9.12233C11.2493 198.249 12.0267 197.175 12.0267 195.597C12.0267 193.95 10.9976 192.944 9.19094 192.944ZM9.14501 186.632H4.84568V190.771H9.14501C10.7231 190.771 11.3633 189.788 11.3633 188.736C11.3633 187.547 10.7458 186.632 9.14501 186.632ZM8.93974 200.445H2.58203V184.437H9.16826C11.9581 184.437 13.7642 185.9 13.7642 188.599C13.7642 190.222 12.8955 191.229 11.7296 191.8C12.9867 192.143 14.4276 193.31 14.4276 195.528C14.4276 198.775 12.4384 200.445 8.93974 200.445Z" fill="white"/>
<path d="M22.8193 200.696C20.487 200.696 18.4746 199.69 17.125 198.112L18.8403 196.443C19.9154 197.609 21.4929 198.341 23.0024 198.341C25.2434 198.341 26.3185 197.564 26.3185 196.008C26.3185 194.773 25.3812 194.156 22.7053 193.356C19.3206 192.349 17.6971 191.503 17.6971 188.645C17.6971 185.877 20.0294 184.185 22.9792 184.185C25.1521 184.185 26.7988 184.985 28.2164 186.358L26.5238 188.072C25.5178 187.044 24.3747 186.54 22.7966 186.54C20.9214 186.54 20.1207 187.455 20.1207 188.53C20.1207 189.651 20.8528 190.199 23.6199 191.023C26.7761 191.983 28.7421 192.989 28.7421 195.848C28.7421 198.73 26.9133 200.696 22.8193 200.696Z" fill="white"/>
<path d="M32.3311 200.445V184.437H34.7319V198.089H42.7137V200.445H32.3311Z" fill="white"/>
<path d="M51.2655 200.696C47.126 200.696 44.4961 197.289 44.4961 192.44C44.4961 187.593 47.126 184.185 51.2655 184.185C53.8728 184.185 55.6107 185.237 56.7085 187.181L54.5816 188.507C53.7582 187.204 52.9116 186.586 51.2655 186.586C48.4756 186.586 46.9661 188.85 46.9661 192.44C46.9661 196.031 48.4756 198.295 51.2655 198.295C52.9349 198.295 53.964 197.609 54.7874 196.305L56.7772 197.632C55.6334 199.598 53.6896 200.696 51.2655 200.696Z" fill="white"/>
<path d="M70.1077 202.96C67.8208 200.788 65.6484 197.724 65.6484 193.584C65.6484 189.308 67.7754 186.289 70.1077 184.07L71.2973 185.1C69.2617 187.364 68.1412 189.994 68.1412 193.47C68.1412 197.22 69.3529 199.736 71.2973 201.931L70.1077 202.96Z" fill="white"/>
<path d="M74.4746 200.445V184.437H76.8755V198.089H84.8572V200.445H74.4746Z" fill="white"/>
<path d="M91.9217 190.314C90.3442 190.314 89.383 191.412 89.1778 193.333H94.7575C94.6435 191.686 93.8661 190.314 91.9217 190.314ZM97.0671 195.276H89.1318C89.383 197.586 90.6867 198.57 92.1502 198.57C93.1567 198.57 93.9574 198.204 94.7575 197.609L96.1524 199.118C95.1006 200.125 93.8429 200.696 92.0136 200.696C89.2005 200.696 86.8223 198.432 86.8223 194.453C86.8223 190.382 88.9719 188.187 92.0816 188.187C95.4896 188.187 97.1357 190.954 97.1357 194.201C97.1357 194.636 97.0898 195.025 97.0671 195.276Z" fill="white"/>
<path d="M106.786 195.322C106.146 195.002 105.322 194.796 104.042 194.796C102.533 194.796 101.572 195.482 101.572 196.58C101.572 197.769 102.327 198.57 103.882 198.57C105.14 198.57 106.237 197.792 106.786 197.037V195.322ZM106.786 200.445V199.255C105.963 200.079 104.796 200.696 103.493 200.696C101.549 200.696 99.3311 199.598 99.3311 196.649C99.3311 193.973 101.389 192.76 104.11 192.76C105.231 192.76 106.123 192.921 106.786 193.218V192.327C106.786 191.023 105.986 190.291 104.522 190.291C103.287 190.291 102.327 190.52 101.389 191.046L100.474 189.262C101.618 188.553 102.898 188.187 104.59 188.187C107.266 188.187 109.096 189.491 109.096 192.212V200.445H106.786Z" fill="white"/>
<path d="M118.997 190.932C118.494 190.657 117.968 190.497 117.19 190.497C115.703 190.497 114.834 191.549 114.834 193.584V200.445H112.479V188.439H114.834V189.582C115.383 188.782 116.389 188.187 117.579 188.187C118.539 188.187 119.134 188.37 119.614 188.69L118.997 190.932Z" fill="white"/>
<path d="M129.334 200.445V193.653C129.334 191.229 128.419 190.36 126.864 190.36C125.286 190.36 124.394 191.48 124.394 193.424V200.445H122.039V188.439H124.394V189.583C124.989 188.714 126.178 188.188 127.412 188.188C130.203 188.188 131.689 190.017 131.689 193.561V200.445H129.334Z" fill="white"/>
<path d="M135.186 188.439H137.542V200.445H135.186V188.439ZM136.375 186.884C135.53 186.884 134.844 186.198 134.844 185.374C134.844 184.528 135.53 183.842 136.375 183.842C137.199 183.842 137.885 184.528 137.885 185.374C137.885 186.198 137.199 186.884 136.375 186.884Z" fill="white"/>
<path d="M148.426 200.445V193.653C148.426 191.229 147.512 190.36 145.957 190.36C144.379 190.36 143.487 191.48 143.487 193.424V200.445H141.132V188.439H143.487V189.583C144.082 188.714 145.271 188.188 146.505 188.188C149.296 188.188 150.782 190.017 150.782 193.561V200.445H148.426Z" fill="white"/>
<path d="M161.415 191.938C160.889 191.229 159.792 190.36 158.602 190.36C156.91 190.36 155.995 191.641 155.995 194.179C155.995 197.197 156.956 198.524 158.693 198.524C159.814 198.524 160.797 197.769 161.415 196.992V191.938ZM158.053 204.858L157.253 203.075C160.638 202.914 161.369 202 161.369 199.508V199.301C160.5 200.102 159.517 200.696 158.259 200.696C155.697 200.696 153.64 198.821 153.64 194.248C153.64 190.131 155.903 188.188 158.373 188.188C159.585 188.188 160.729 188.828 161.369 189.56V188.439H163.725V199.301C163.725 202.96 162.398 204.721 158.053 204.858Z" fill="white"/>
<path d="M179.731 200.696C175.592 200.696 172.962 197.289 172.962 192.44C172.962 187.593 175.592 184.185 179.731 184.185C182.339 184.185 184.076 185.237 185.174 187.181L183.047 188.507C182.224 187.204 181.377 186.586 179.731 186.586C176.941 186.586 175.432 188.85 175.432 192.44C175.432 196.031 176.941 198.295 179.731 198.295C181.401 198.295 182.43 197.609 183.253 196.305L185.243 197.632C184.099 199.598 182.155 200.696 179.731 200.696Z" fill="white"/>
<path d="M192.583 190.428C190.799 190.428 189.701 192.006 189.701 194.385C189.701 197.014 190.914 198.455 192.697 198.455C194.481 198.455 195.647 196.649 195.647 194.453C195.647 192.006 194.481 190.428 192.583 190.428ZM192.606 200.696C189.587 200.696 187.323 198.204 187.323 194.453C187.323 190.52 189.655 188.187 192.674 188.187C195.738 188.187 198.026 190.634 198.026 194.385C198.026 198.364 195.693 200.696 192.606 200.696Z" fill="white"/>
<path d="M214.88 200.445V193.653C214.88 191.229 214.125 190.36 212.57 190.36C210.992 190.36 210.26 191.48 210.26 193.424V200.445H207.904V193.653C207.904 191.229 207.15 190.36 205.595 190.36C204.017 190.36 203.285 191.48 203.285 193.424V200.445H200.93V188.439H203.285V189.583C203.88 188.714 204.909 188.188 206.144 188.188C207.767 188.188 208.796 188.805 209.437 189.948C210.306 188.874 211.243 188.188 213.119 188.188C215.908 188.188 217.235 190.017 217.235 193.561V200.445H214.88Z" fill="white"/>
<path d="M234.567 200.445V193.653C234.567 191.229 233.812 190.36 232.257 190.36C230.679 190.36 229.948 191.48 229.948 193.424V200.445H227.592V193.653C227.592 191.229 226.837 190.36 225.282 190.36C223.705 190.36 222.973 191.48 222.973 193.424V200.445H220.617V188.439H222.973V189.583C223.568 188.714 224.596 188.188 225.831 188.188C227.455 188.188 228.484 188.805 229.124 189.948C229.993 188.874 230.931 188.188 232.806 188.188C235.596 188.188 236.922 190.017 236.922 193.561V200.445H234.567Z" fill="white"/>
<path d="M247.509 200.445V199.301C246.914 200.17 245.725 200.696 244.491 200.696C241.701 200.696 240.214 198.867 240.214 195.322V188.439H242.569V195.231C242.569 197.655 243.484 198.523 245.039 198.523C246.617 198.523 247.509 197.404 247.509 195.459V188.439H249.864V200.445H247.509Z" fill="white"/>
<path d="M260.634 200.445V193.653C260.634 191.229 259.72 190.36 258.165 190.36C256.587 190.36 255.695 191.48 255.695 193.424V200.445H253.34V188.439H255.695V189.583C256.29 188.714 257.479 188.188 258.713 188.188C261.504 188.188 262.99 190.017 262.99 193.561V200.445H260.634Z" fill="white"/>
<path d="M266.489 188.439H268.844V200.445H266.489V188.439ZM267.677 186.884C266.832 186.884 266.146 186.198 266.146 185.374C266.146 184.528 266.832 183.842 267.677 183.842C268.5 183.842 269.187 184.528 269.187 185.374C269.187 186.198 268.5 186.884 267.677 186.884Z" fill="white"/>
<path d="M278.173 200.147C277.602 200.467 276.801 200.696 275.864 200.696C274.194 200.696 273.165 199.667 273.165 197.517V190.589H271.45V188.439H273.165V185.009L275.475 183.774V188.439H278.448V190.589H275.475V197.106C275.475 198.226 275.841 198.547 276.71 198.547C277.327 198.547 278.013 198.318 278.448 198.066L278.173 200.147Z" fill="white"/>
<path d="M285.377 204.675H282.884L284.622 200.216L280.209 188.439H282.792L284.76 194.315C285.126 195.368 285.674 197.151 285.812 197.815C286.017 197.106 286.521 195.39 286.886 194.362L288.922 188.439H291.414L285.377 204.675Z" fill="white"/>
<path d="M293.541 202.937L292.352 201.908C294.387 199.644 295.508 197.014 295.508 193.538C295.508 189.788 294.295 187.272 292.352 185.077L293.541 184.048C295.828 186.221 298 189.285 298 193.424C298 197.7 295.873 200.719 293.541 202.937Z" fill="white"/>
<path d="M20.3606 239.224C20.3606 238.215 20.0936 237.422 19.5458 236.838C18.9912 236.255 18.1486 235.975 17.0241 235.975H9.55105V242.557H16.9669C18.127 242.557 18.9912 242.254 19.5458 241.621C20.0936 240.983 20.3606 240.193 20.3606 239.224ZM19.5827 226.147C19.5827 225.409 19.3802 224.764 18.9589 224.238C18.5302 223.723 17.759 223.459 16.6278 223.459H9.55105V228.843H16.6278C17.7301 228.843 18.5013 228.602 18.9408 228.104C19.3734 227.618 19.5827 226.969 19.5827 226.147ZM29.5814 239.051C29.5814 242.535 28.5255 245.216 26.4246 247.126C24.3203 249.035 21.1244 249.994 16.8223 249.994H0.525391V216.037H16.93C21.1244 216.037 24.1581 216.804 26.0181 218.328C27.8695 219.849 28.8068 222.03 28.8068 224.879C28.8068 226.724 28.403 228.148 27.6029 229.117C26.8244 230.082 25.8627 230.896 24.7275 231.534C26.2772 232.183 27.481 233.113 28.3163 234.323C29.1669 235.534 29.5814 237.105 29.5814 239.051Z" fill="white"/>
<path d="M33.3584 216.037H42.9681V249.979H33.3584V216.037Z" fill="white"/>
<path d="M70.0208 249.98L61.9205 238.781C61.5276 238.266 61.0921 237.628 60.5585 236.871C60.0328 236.107 59.5242 235.346 59.0382 234.587C58.5262 233.83 58.0652 233.106 57.6257 232.417C57.2004 231.747 56.8545 231.214 56.6311 230.835C56.6958 231.214 56.7355 231.747 56.7718 232.457C56.8075 233.149 56.8404 233.913 56.8693 234.738C56.905 235.556 56.9266 236.409 56.9266 237.278V239.609V249.98H47.9043V216.037H56.1985L63.6648 226.08C64.0537 226.595 64.5221 227.236 65.041 228.024C65.5814 228.789 66.1076 229.567 66.623 230.349C67.1379 231.12 67.6137 231.855 68.0276 232.526C68.4569 233.207 68.7591 233.725 68.9468 234.071C68.8895 233.696 68.8385 233.149 68.8096 232.457C68.7738 231.747 68.7341 230.998 68.6944 230.176C68.6769 229.34 68.6587 228.507 68.6587 227.636V225.293V216.037H77.6736V249.98H70.0208Z" fill="white"/>
<path d="M110.816 242.369C110.074 244.268 109.011 245.843 107.66 247.046C106.32 248.25 104.749 249.133 102.918 249.681C101.077 250.235 99.113 250.512 96.9804 250.512C94.8438 250.512 92.8693 250.235 91.0497 249.681C89.2476 249.133 87.6837 248.25 86.3795 247.046C85.0821 245.843 84.0444 244.268 83.3095 242.369C82.5463 240.474 82.1816 238.16 82.1816 235.487V216.051H91.7846V235.487C91.7846 237.588 92.2166 239.241 93.0672 240.419C93.9354 241.63 95.2685 242.225 97.117 242.225C98.969 242.225 100.302 241.63 101.11 240.419C101.945 239.241 102.363 237.588 102.363 235.487V216.051H111.959V235.487C111.959 238.16 111.584 240.474 110.816 242.369Z" fill="white"/>
<path d="M143.479 239.569C143.479 241.497 143.122 243.159 142.434 244.556C141.739 245.941 140.762 247.075 139.512 247.943C138.28 248.808 136.806 249.468 135.087 249.889C133.379 250.307 131.498 250.52 129.466 250.52C126.714 250.52 124.09 250.109 121.589 249.32C119.085 248.527 116.945 247.566 115.154 246.394L119.716 239.029C120.325 239.444 121.049 239.858 121.878 240.255C122.696 240.669 123.557 241.037 124.447 241.346C125.329 241.67 126.23 241.929 127.139 242.132C128.039 242.319 128.882 242.423 129.66 242.423C131.333 242.423 132.504 242.258 133.119 241.929C133.747 241.613 134.071 241.044 134.071 240.241C134.071 239.919 133.977 239.62 133.811 239.365C133.617 239.097 133.307 238.849 132.871 238.611C132.438 238.367 131.866 238.128 131.116 237.883C130.367 237.645 129.43 237.39 128.295 237.13C126.259 236.651 124.479 236.136 122.973 235.581C121.442 235.029 120.181 234.345 119.189 233.52C118.185 232.702 117.428 231.707 116.92 230.533C116.422 229.373 116.174 227.935 116.174 226.227C116.174 224.641 116.487 223.189 117.122 221.86C117.756 220.535 118.653 219.406 119.817 218.469C120.977 217.532 122.374 216.805 124.025 216.286C125.676 215.771 127.517 215.507 129.556 215.507C132.471 215.507 134.994 215.85 137.144 216.523C139.296 217.204 141.274 218.175 143.083 219.428L138.525 226.799C137.004 225.773 135.491 224.977 133.97 224.433C132.453 223.881 130.814 223.604 129.077 223.604C127.65 223.604 126.714 223.792 126.259 224.188C125.816 224.574 125.589 225.077 125.589 225.693C125.589 226.011 125.676 226.299 125.848 226.534C126.018 226.771 126.331 227.006 126.742 227.214C127.167 227.423 127.736 227.644 128.436 227.852C129.142 228.061 130.064 228.295 131.159 228.555C133.285 229.067 135.145 229.632 136.687 230.245C138.24 230.867 139.512 231.577 140.514 232.422C141.515 233.268 142.264 234.28 142.755 235.441C143.23 236.601 143.479 237.97 143.479 239.569Z" fill="white"/>
<path d="M10.1063 287.5C4.35928 287.5 0.493164 283.623 0.493164 276.694V263.351H5.25634V276.625C5.25634 280.426 7.07996 282.841 10.1063 282.841C13.1258 282.841 14.9999 280.502 14.9999 276.694V263.351H19.7489V276.625C19.7489 283.519 16.1527 287.5 10.1063 287.5Z" fill="white"/>
<path d="M40.7125 287.118L31.9783 274.15C31.4016 273.267 30.6163 272.078 30.3135 271.465C30.3135 272.351 30.3855 275.339 30.3855 276.668V287.118H25.6943V263.351H30.2449L38.6689 275.919C39.2462 276.795 40.0241 277.987 40.3377 278.592C40.3377 277.713 40.2617 274.723 40.2617 273.403V263.351H44.9501V287.118H40.7125Z" fill="white"/>
<path d="M51.3994 263.351H56.1626V287.118H51.3994V263.351Z" fill="white"/>
<path d="M73.9837 287.118H69.368L60.915 263.351H66.1789L70.662 277.104C71.1014 278.427 71.5772 280.16 71.7785 281.007C71.9872 280.135 72.4272 278.495 72.8667 277.104L77.2482 263.351H82.444L73.9837 287.118Z" fill="white"/>
<path d="M86.8623 287.118V263.351H103.365V267.995H91.6187V272.113H98.4465V276.73H91.6187V282.466H103.876V287.118H86.8623Z" fill="white"/>
<path d="M119.912 267.967H113.688V274.081H119.912C122.114 274.081 123.302 273.061 123.302 270.989C123.302 268.853 122.009 267.967 119.912 267.967ZM122.729 287.118L118.478 278.563H113.688V287.118H108.939V263.351H120.013C124.488 263.351 128.192 265.826 128.192 270.893C128.192 274.459 126.664 276.694 123.645 277.879L128.192 287.118H122.729Z" fill="white"/>
<path d="M141.271 287.5C137.293 287.5 133.834 285.839 132.028 283.186L135.463 280.135C137.12 282.059 139.26 282.841 141.538 282.841C144.355 282.841 145.681 282.059 145.681 280.257C145.681 278.73 144.867 278.052 140.385 277.04C136.003 276.016 132.948 274.629 132.948 269.937C132.948 265.628 136.76 262.98 141.437 262.98C145.141 262.98 147.857 264.363 150.096 266.709L146.669 270.031C145.141 268.475 143.444 267.588 141.271 267.588C138.727 267.588 137.869 268.683 137.869 269.739C137.869 271.227 138.896 271.704 142.662 272.582C146.431 273.469 150.603 274.759 150.603 279.918C150.603 284.437 147.75 287.5 141.271 287.5Z" fill="white"/>
<path d="M155.976 263.351H160.729V287.118H155.976V263.351Z" fill="white"/>
<path d="M177.23 268.031V287.118H172.481V268.031H165.653V263.351H184.058V268.031H177.23Z" fill="white"/>
<path d="M200.09 277.713V287.118H195.333V277.81L186.336 263.351H191.798L195.167 268.983C196.018 270.413 197.304 272.756 197.747 273.642C198.187 272.756 199.448 270.477 200.324 268.983L203.686 263.351H209.09L200.09 277.713Z" fill="white"/>
</svg>
