<svg width="32" height="32" viewBox="0 0 32 32" fill="none" xmlns="http://www.w3.org/2000/svg">
<path d="M2.66699 7.99992C2.66699 7.29267 2.94794 6.6144 3.44804 6.1143C3.94814 5.6142 4.62641 5.33325 5.33366 5.33325H26.667C27.3742 5.33325 28.0525 5.6142 28.5526 6.1143C29.0527 6.6144 29.3337 7.29267 29.3337 7.99992V23.9999C29.3337 24.7072 29.0527 25.3854 28.5526 25.8855C28.0525 26.3856 27.3742 26.6666 26.667 26.6666H5.33366C4.62641 26.6666 3.94814 26.3856 3.44804 25.8855C2.94794 25.3854 2.66699 24.7072 2.66699 23.9999V7.99992Z" fill="#E9E9E9" stroke="#21272C" stroke-width="2" stroke-linecap="round" stroke-linejoin="round"/>
<path d="M2.66699 10.6667L12.6683 18.6681C13.614 19.4248 14.7891 19.837 16.0003 19.837C17.2115 19.837 18.3866 19.4248 19.3323 18.6681L29.3337 10.6667" fill="#E9E9E9"/>
<path d="M2.66699 10.6667L12.6683 18.6681C13.614 19.4248 14.7891 19.837 16.0003 19.837C17.2115 19.837 18.3866 19.4248 19.3323 18.6681L29.3337 10.6667" stroke="#21272C" stroke-width="2" stroke-linejoin="round"/>
</svg>
