<svg width="49" height="48" viewBox="0 0 49 48" fill="none" xmlns="http://www.w3.org/2000/svg">
<path d="M6.5 6V42H42.5" stroke="black" stroke-width="3" stroke-linecap="round" stroke-linejoin="round"/>
<path d="M18.5 22C20.7091 22 22.5 20.2091 22.5 18C22.5 15.7909 20.7091 14 18.5 14C16.2909 14 14.5 15.7909 14.5 18C14.5 20.2091 16.2909 22 18.5 22Z" stroke="black" stroke-width="3" stroke-linecap="round" stroke-linejoin="round"/>
<path d="M38.5 18C40.7091 18 42.5 16.2091 42.5 14C42.5 11.7909 40.7091 10 38.5 10C36.2909 10 34.5 11.7909 34.5 14C34.5 16.2091 36.2909 18 38.5 18Z" stroke="black" stroke-width="3" stroke-linecap="round" stroke-linejoin="round"/>
<path d="M28.5 34C30.7091 34 32.5 32.2091 32.5 30C32.5 27.7909 30.7091 26 28.5 26C26.2909 26 24.5 27.7909 24.5 30C24.5 32.2091 26.2909 34 28.5 34Z" stroke="black" stroke-width="3" stroke-linecap="round" stroke-linejoin="round"/>
<path d="M20.8203 21.24L25.5003 27M30.6763 26.656L36.3503 17.484" stroke="black" stroke-width="3" stroke-linecap="round" stroke-linejoin="round"/>
</svg>
