<svg width="64" height="64" viewBox="0 0 64 64" fill="none" xmlns="http://www.w3.org/2000/svg">
<path d="M31.9758 23.7193C32.0664 23.7193 32.1558 23.7107 32.2444 23.6927C32.3331 23.6753 32.4191 23.6493 32.5024 23.6147C32.5858 23.58 32.6651 23.538 32.7404 23.4873C32.8151 23.4373 32.8851 23.38 32.9491 23.3167C33.0124 23.2527 33.0698 23.1827 33.1198 23.108C33.1704 23.0327 33.2124 22.9533 33.2471 22.87C33.2818 22.7867 33.3078 22.7007 33.3251 22.612C33.3431 22.5233 33.3518 22.434 33.3518 22.3433C33.3518 22.2533 33.3431 22.1633 33.3251 22.0747C33.3078 21.986 33.2818 21.9 33.2471 21.8167C33.2124 21.7333 33.1704 21.654 33.1198 21.5787C33.0698 21.504 33.0124 21.434 32.9491 21.3707C32.8851 21.3067 32.8151 21.2493 32.7404 21.1993C32.6651 21.1493 32.5858 21.1067 32.5024 21.072C32.4191 21.0373 32.3331 21.0113 32.2444 20.994C32.1558 20.976 32.0664 20.9673 31.9758 20.9673C31.7958 20.9673 31.6158 20.972 31.4358 20.9807C31.2558 20.9893 31.0764 21.0027 30.8971 21.0207C30.7178 21.038 30.5391 21.06 30.3604 21.0867C30.1824 21.1127 30.0051 21.144 29.8284 21.1787C29.6518 21.214 29.4758 21.2533 29.3011 21.2973C29.1264 21.3413 28.9524 21.3893 28.7804 21.4413C28.6078 21.494 28.4371 21.55 28.2671 21.6107C28.0978 21.6713 27.9298 21.7367 27.7631 21.8053C27.5971 21.874 27.4324 21.9473 27.2691 22.024C27.1064 22.1013 26.9458 22.182 26.7864 22.2673C26.6278 22.352 26.4711 22.4407 26.3164 22.5333C26.1618 22.626 26.0098 22.7227 25.8604 22.8227C25.7104 22.9227 25.5631 23.0267 25.4184 23.134C25.2738 23.2407 25.1318 23.352 24.9924 23.466C24.8531 23.5807 24.7171 23.698 24.5831 23.8187C24.4498 23.94 24.3191 24.064 24.1918 24.1913C24.0644 24.3187 23.9404 24.4493 23.8191 24.5827C23.6984 24.7167 23.5811 24.8527 23.4664 24.992C23.3524 25.1313 23.2411 25.2733 23.1344 25.418C23.0271 25.5627 22.9231 25.71 22.8231 25.8593C22.7231 26.0093 22.6264 26.1613 22.5338 26.316C22.4411 26.4707 22.3524 26.6273 22.2678 26.786C22.1824 26.9453 22.1018 27.106 22.0244 27.2687C21.9478 27.432 21.8744 27.5967 21.8058 27.7627C21.7371 27.9293 21.6718 28.0973 21.6111 28.2667C21.5504 28.4367 21.4944 28.6073 21.4418 28.78C21.3898 28.952 21.3418 29.126 21.2978 29.3007C21.2538 29.4753 21.2144 29.6513 21.1791 29.828C21.1444 30.0047 21.1131 30.182 21.0871 30.36C21.0604 30.5387 21.0384 30.7173 21.0211 30.8967C21.0031 31.076 20.9898 31.2553 20.9811 31.4353C20.9724 31.6153 20.9678 31.7953 20.9678 31.9753C20.9678 32.1553 20.9724 32.3353 20.9811 32.5153C20.9898 32.6953 21.0031 32.8753 21.0211 33.0547C21.0384 33.2333 21.0604 33.4127 21.0871 33.5907C21.1131 33.7687 21.1444 33.946 21.1791 34.1227C21.2144 34.2993 21.2538 34.4753 21.2978 34.65C21.3418 34.8247 21.3898 34.9987 21.4418 35.1707C21.4944 35.3433 21.5504 35.514 21.6111 35.684C21.6718 35.8533 21.7371 36.0213 21.8058 36.188C21.8744 36.3547 21.9478 36.5193 22.0244 36.682C22.1018 36.8447 22.1824 37.0053 22.2678 37.1647C22.3524 37.3233 22.4411 37.48 22.5338 37.6347C22.6264 37.7893 22.7231 37.9413 22.8231 38.0913C22.9231 38.2407 23.0271 38.388 23.1344 38.5327C23.2411 38.6773 23.3524 38.8193 23.4664 38.9587C23.5811 39.098 23.6984 39.2347 23.8191 39.368C23.9404 39.5013 24.0644 39.632 24.1918 39.7593C24.3191 39.8867 24.4498 40.0107 24.5831 40.132C24.7171 40.2527 24.8531 40.3707 24.9924 40.4847C25.1318 40.5987 25.2738 40.71 25.4184 40.8173C25.5631 40.9247 25.7104 41.028 25.8598 41.128C26.0098 41.228 26.1618 41.3247 26.3164 41.4173C26.4711 41.51 26.6278 41.5987 26.7864 41.6833C26.9458 41.7687 27.1064 41.8493 27.2691 41.9267C27.4324 42.0033 27.5971 42.0767 27.7631 42.1453C27.9298 42.2147 28.0978 42.2793 28.2671 42.34C28.4371 42.4007 28.6078 42.4573 28.7804 42.5093C28.9524 42.562 29.1264 42.61 29.3011 42.6533C29.4758 42.6973 29.6518 42.7367 29.8284 42.772C30.0051 42.8073 30.1824 42.838 30.3604 42.864C30.5391 42.8907 30.7178 42.9127 30.8971 42.9307C31.0764 42.948 31.2558 42.9613 31.4358 42.97C31.6158 42.9787 31.7958 42.9833 31.9758 42.9833C32.1558 42.9833 32.3358 42.9787 32.5158 42.97C32.6958 42.9613 32.8758 42.948 33.0551 42.9307C33.2338 42.9127 33.4131 42.8907 33.5911 42.864C33.7691 42.838 33.9464 42.8073 34.1231 42.772C34.2998 42.7367 34.4758 42.6973 34.6504 42.6533C34.8251 42.61 34.9991 42.562 35.1711 42.5093C35.3438 42.4573 35.5144 42.4007 35.6844 42.34C35.8538 42.2793 36.0218 42.2147 36.1884 42.1453C36.3551 42.0767 36.5198 42.0033 36.6824 41.9267C36.8451 41.8493 37.0058 41.7687 37.1651 41.6833C37.3238 41.5987 37.4804 41.51 37.6351 41.4173C37.7898 41.3247 37.9418 41.228 38.0918 41.128C38.2411 41.028 38.3884 40.9247 38.5331 40.8173C38.6778 40.71 38.8198 40.5987 38.9591 40.4847C39.0984 40.3707 39.2351 40.2527 39.3684 40.132C39.5018 40.0107 39.6324 39.8867 39.7598 39.7593C39.8871 39.632 40.0111 39.5013 40.1324 39.368C40.2531 39.2347 40.3711 39.098 40.4851 38.9587C40.5991 38.8193 40.7104 38.6773 40.8178 38.5327C40.9251 38.388 41.0284 38.2407 41.1284 38.0913C41.2284 37.9413 41.3251 37.7893 41.4178 37.6347C41.5104 37.48 41.5991 37.3233 41.6838 37.1647C41.7691 37.0053 41.8498 36.8447 41.9271 36.682C42.0038 36.5193 42.0771 36.3547 42.1458 36.188C42.2151 36.0213 42.2798 35.8533 42.3404 35.684C42.4011 35.514 42.4578 35.3433 42.5098 35.1707C42.5624 34.9987 42.6104 34.8247 42.6538 34.65C42.6978 34.4753 42.7371 34.2993 42.7724 34.1227C42.8078 33.946 42.8384 33.7687 42.8644 33.5907C42.8911 33.4127 42.9131 33.2333 42.9311 33.0547C42.9484 32.8753 42.9618 32.6953 42.9704 32.5153C42.9791 32.3353 42.9838 32.1553 42.9838 31.9753C42.9838 31.8853 42.9751 31.7953 42.9571 31.7067C42.9398 31.618 42.9138 31.532 42.8791 31.4487C42.8444 31.3653 42.8024 31.286 42.7518 31.2107C42.7018 31.136 42.6444 31.066 42.5811 31.0027C42.5171 30.9387 42.4471 30.8813 42.3724 30.8313C42.2971 30.7813 42.2178 30.7387 42.1344 30.704C42.0511 30.6693 41.9651 30.6433 41.8764 30.626C41.7878 30.608 41.6984 30.5993 41.6078 30.5993C41.5178 30.5993 41.4278 30.608 41.3391 30.626C41.2504 30.6433 41.1644 30.6693 41.0811 30.704C40.9978 30.7387 40.9184 30.7813 40.8431 30.8313C40.7684 30.8813 40.6984 30.9387 40.6351 31.0027C40.5711 31.066 40.5138 31.136 40.4638 31.2107C40.4138 31.286 40.3711 31.3653 40.3364 31.4487C40.3018 31.532 40.2758 31.618 40.2584 31.7067C40.2404 31.7953 40.2318 31.8853 40.2318 31.9753C40.2318 32.246 40.2184 32.5153 40.1918 32.7847C40.1658 33.054 40.1258 33.3207 40.0731 33.586C40.0204 33.8513 39.9551 34.1133 39.8764 34.372C39.7978 34.6307 39.7071 34.8853 39.6031 35.1347C39.4998 35.3847 39.3844 35.6287 39.2571 35.8673C39.1298 36.106 38.9904 36.3373 38.8404 36.562C38.6904 36.7867 38.5291 37.004 38.3578 37.2127C38.1864 37.422 38.0051 37.622 37.8138 37.8133C37.6224 38.0047 37.4224 38.186 37.2131 38.3573C37.0044 38.5287 36.7871 38.69 36.5624 38.84C36.3378 38.99 36.1064 39.1293 35.8678 39.2567C35.6291 39.384 35.3851 39.4993 35.1351 39.6027C34.8858 39.7067 34.6311 39.7973 34.3724 39.876C34.1138 39.9547 33.8518 40.02 33.5864 40.0727C33.3211 40.1253 33.0544 40.1653 32.7851 40.1913C32.5158 40.218 32.2464 40.2313 31.9758 40.2313C31.7051 40.2313 31.4358 40.218 31.1664 40.1913C30.8978 40.1653 30.6304 40.1253 30.3651 40.0727C30.0998 40.02 29.8378 39.9547 29.5791 39.876C29.3204 39.7973 29.0664 39.7067 28.8164 39.6027C28.5664 39.4993 28.3224 39.384 28.0838 39.2567C27.8458 39.1293 27.6138 38.99 27.3891 38.84C27.1644 38.69 26.9471 38.5287 26.7384 38.3573C26.5291 38.186 26.3291 38.0047 26.1378 37.8133C25.9464 37.622 25.7651 37.422 25.5938 37.2127C25.4224 37.004 25.2611 36.7867 25.1111 36.562C24.9611 36.3373 24.8224 36.106 24.6944 35.8673C24.5671 35.6287 24.4518 35.3847 24.3484 35.1347C24.2451 34.8853 24.1538 34.6307 24.0751 34.372C23.9971 34.1133 23.9311 33.8513 23.8784 33.586C23.8258 33.3207 23.7858 33.054 23.7598 32.7847C23.7331 32.5153 23.7198 32.246 23.7198 31.9753C23.7198 31.7047 23.7331 31.4353 23.7598 31.166C23.7858 30.8973 23.8258 30.63 23.8784 30.3647C23.9311 30.0993 23.9971 29.8373 24.0751 29.5787C24.1538 29.32 24.2451 29.066 24.3484 28.816C24.4518 28.566 24.5671 28.322 24.6944 28.0833C24.8224 27.8453 24.9611 27.6133 25.1111 27.3887C25.2611 27.164 25.4224 26.9467 25.5938 26.738C25.7651 26.5287 25.9464 26.3287 26.1378 26.1373C26.3291 25.946 26.5291 25.7647 26.7384 25.5933C26.9471 25.422 27.1644 25.2607 27.3891 25.1107C27.6138 24.9607 27.8458 24.822 28.0838 24.694C28.3224 24.5667 28.5664 24.4513 28.8164 24.348C29.0664 24.2447 29.3204 24.1533 29.5791 24.0747C29.8378 23.9967 30.0998 23.9307 30.3651 23.878C30.6304 23.8253 30.8978 23.7853 31.1664 23.7593C31.4358 23.7327 31.7051 23.7193 31.9758 23.7193Z" fill="#51C6BD"/>
<path d="M58.2317 23.8067C58.2077 23.7173 58.1751 23.6313 58.1337 23.548C58.0924 23.4653 58.0437 23.3873 57.9864 23.3147C57.9291 23.2413 57.8657 23.1747 57.7951 23.1147C57.7244 23.0547 57.6491 23.002 57.5677 22.9573C57.4871 22.9127 57.4017 22.8767 57.3137 22.8487C57.2251 22.8213 57.1351 22.8027 57.0431 22.7927C56.9504 22.7833 56.8584 22.7833 56.7664 22.7927C56.6744 22.8013 56.5837 22.82 56.4951 22.8473C56.4071 22.8747 56.3217 22.9107 56.2411 22.9553C56.1597 23 56.0837 23.052 56.0131 23.112C55.9424 23.1713 55.8784 23.238 55.8211 23.3107C55.7637 23.3833 55.7144 23.4613 55.6724 23.544C55.6311 23.6267 55.5984 23.7127 55.5737 23.8027C55.5497 23.892 55.5351 23.9827 55.5291 24.0753C55.5231 24.1673 55.5264 24.2593 55.5391 24.3513C55.5524 24.4433 55.5737 24.5327 55.6051 24.62C56.3557 27.014 56.7351 29.466 56.7431 31.9753C56.7431 45.6353 45.6351 56.7433 31.9751 56.7433C18.3151 56.7433 7.20708 45.6353 7.20708 31.9753C7.20708 18.3153 18.3151 7.20732 31.9751 7.20732C34.4844 7.21532 36.9364 7.59466 39.3304 8.34599C39.4177 8.37666 39.5071 8.39866 39.5991 8.41132C39.6911 8.42399 39.7831 8.42732 39.8751 8.42132C39.9677 8.41599 40.0591 8.40066 40.1484 8.37666C40.2377 8.35199 40.3237 8.31932 40.4064 8.27799C40.4891 8.23599 40.5671 8.18666 40.6397 8.12932C40.7124 8.07199 40.7791 8.00799 40.8391 7.93732C40.8984 7.86666 40.9511 7.79066 40.9951 7.70999C41.0397 7.62866 41.0757 7.54332 41.1031 7.45532C41.1304 7.36666 41.1491 7.27599 41.1577 7.18399C41.1671 7.09199 41.1671 6.99999 41.1577 6.90732C41.1484 6.81532 41.1297 6.72532 41.1017 6.63666C41.0744 6.54866 41.0377 6.46399 40.9931 6.38266C40.9484 6.30132 40.8957 6.22599 40.8357 6.15532C40.7757 6.08466 40.7091 6.02132 40.6357 5.96399C40.5631 5.90732 40.4851 5.85799 40.4024 5.81666C40.3191 5.77532 40.2331 5.74266 40.1437 5.71866C37.4851 4.88132 34.7624 4.45999 31.9751 4.45532C16.8017 4.45532 4.45508 16.802 4.45508 31.9753C4.45508 47.1487 16.8017 59.4953 31.9751 59.4953C47.1484 59.4953 59.4951 47.1487 59.4951 31.9753C59.4904 29.188 59.0691 26.4653 58.2317 23.8067Z" fill="#51C6BD"/>
<path d="M34.5896 14.2753C34.6643 13.5246 33.9763 12.8486 33.2136 12.7866C32.8129 12.7486 32.4003 12.7113 31.9749 12.7113C21.3549 12.7113 12.7109 21.3553 12.7109 31.9753C12.7109 42.5953 21.3549 51.2393 31.9749 51.2393C42.5949 51.2393 51.2389 42.5953 51.2389 31.9753C51.2389 31.4773 51.2096 30.9813 51.1516 30.4866C50.8009 28.7853 48.2369 28.898 48.4243 30.9746C48.4643 31.3073 48.4849 31.6406 48.4869 31.9753C48.4869 32.2453 48.4803 32.516 48.4669 32.7853C48.4536 33.0553 48.4343 33.3246 48.4076 33.594C48.3809 33.8626 48.3476 34.1306 48.3083 34.398C48.2689 34.6653 48.2223 34.932 48.1696 35.1966C48.1169 35.462 48.0576 35.7253 47.9923 35.9873C47.9263 36.2493 47.8543 36.51 47.7763 36.7686C47.6976 37.0273 47.6129 37.284 47.5216 37.538C47.4309 37.7926 47.3336 38.0446 47.2303 38.294C47.1269 38.544 47.0169 38.7906 46.9016 39.0353C46.7863 39.2793 46.6649 39.5206 46.5376 39.7593C46.4096 39.9973 46.2769 40.2326 46.1376 40.464C45.9989 40.696 45.8543 40.924 45.7043 41.1486C45.5543 41.3733 45.3983 41.5946 45.2376 41.8113C45.0763 42.0286 44.9103 42.2413 44.7389 42.4506C44.5676 42.6593 44.3909 42.864 44.2096 43.064C44.0283 43.2646 43.8416 43.46 43.6509 43.6513C43.4596 43.842 43.2643 44.0286 43.0636 44.21C42.8636 44.3913 42.6589 44.568 42.4503 44.7393C42.2409 44.9106 42.0283 45.0766 41.8109 45.238C41.5943 45.3986 41.3729 45.5546 41.1483 45.7046C40.9236 45.8546 40.6956 45.9993 40.4636 46.138C40.2323 46.2773 39.9969 46.41 39.7589 46.5373C39.5203 46.6653 39.2789 46.7866 39.0349 46.902C38.7903 47.0173 38.5436 47.1273 38.2936 47.2306C38.0443 47.334 37.7923 47.4313 37.5376 47.522C37.2836 47.6133 37.0269 47.698 36.7683 47.7766C36.5096 47.8546 36.2489 47.9266 35.9869 47.9926C35.7249 48.058 35.4616 48.1173 35.1963 48.17C34.9316 48.2226 34.6649 48.2693 34.3976 48.3086C34.1303 48.348 33.8623 48.3813 33.5936 48.408C33.3243 48.4346 33.0549 48.454 32.7849 48.4673C32.5156 48.4806 32.2449 48.4873 31.9749 48.4873C31.7049 48.4873 31.4349 48.4806 31.1649 48.4673C30.8949 48.454 30.6256 48.4346 30.3563 48.408C30.0876 48.3813 29.8196 48.348 29.5523 48.3086C29.2849 48.2693 29.0189 48.2226 28.7536 48.17C28.4889 48.1173 28.2249 48.058 27.9629 47.9926C27.7009 47.9266 27.4403 47.8546 27.1816 47.7766C26.9229 47.698 26.6669 47.6133 26.4123 47.522C26.1576 47.4313 25.9056 47.334 25.6563 47.2306C25.4063 47.1273 25.1596 47.0173 24.9149 46.902C24.6709 46.7866 24.4296 46.6653 24.1916 46.538C23.9529 46.41 23.7176 46.2773 23.4863 46.138C23.2543 45.9993 23.0263 45.8546 22.8016 45.7046C22.5769 45.5546 22.3556 45.3986 22.1389 45.238C21.9216 45.0766 21.7089 44.9106 21.4996 44.7393C21.2909 44.568 21.0863 44.3913 20.8863 44.21C20.6863 44.0286 20.4903 43.842 20.2989 43.6513C20.1083 43.46 19.9216 43.2646 19.7403 43.064C19.5589 42.864 19.3823 42.6593 19.2109 42.4506C19.0396 42.2413 18.8736 42.0286 18.7123 41.8113C18.5516 41.5946 18.3956 41.3733 18.2456 41.1486C18.0956 40.924 17.9509 40.696 17.8123 40.464C17.6729 40.2326 17.5403 39.9973 17.4129 39.7593C17.2856 39.5206 17.1636 39.2793 17.0483 39.0353C16.9329 38.7906 16.8236 38.544 16.7196 38.294C16.6163 38.0446 16.5189 37.7926 16.4283 37.538C16.3369 37.284 16.2523 37.0273 16.1743 36.7686C16.0956 36.51 16.0236 36.2493 15.9576 35.9873C15.8923 35.7253 15.8329 35.462 15.7803 35.1966C15.7276 34.932 15.6816 34.6653 15.6416 34.398C15.6023 34.1306 15.5689 33.8626 15.5423 33.594C15.5163 33.3246 15.4963 33.0553 15.4829 32.7853C15.4696 32.516 15.4629 32.2453 15.4629 31.9753C15.4629 31.7053 15.4696 31.4353 15.4829 31.1653C15.4963 30.8953 15.5163 30.626 15.5423 30.3566C15.5689 30.088 15.6023 29.82 15.6416 29.5526C15.6816 29.2853 15.7276 29.0193 15.7803 28.754C15.8329 28.4893 15.8923 28.2253 15.9576 27.9633C16.0236 27.7013 16.0956 27.4406 16.1743 27.182C16.2523 26.9233 16.3369 26.6673 16.4283 26.4126C16.5189 26.158 16.6163 25.906 16.7196 25.6566C16.8236 25.4066 16.9329 25.16 17.0483 24.9153C17.1636 24.6713 17.2856 24.43 17.4129 24.192C17.5403 23.9533 17.6729 23.718 17.8123 23.4866C17.9509 23.2546 18.0956 23.0266 18.2456 22.802C18.3956 22.5773 18.5516 22.356 18.7123 22.1393C18.8736 21.922 19.0396 21.7093 19.2109 21.5C19.3823 21.2913 19.5589 21.0866 19.7403 20.8866C19.9216 20.6866 20.1083 20.4906 20.2989 20.2993C20.4903 20.1086 20.6863 19.922 20.8863 19.7406C21.0863 19.5593 21.2909 19.3826 21.4996 19.2113C21.7089 19.04 21.9216 18.874 22.1389 18.7126C22.3556 18.552 22.5769 18.396 22.8016 18.246C23.0263 18.096 23.2543 17.9513 23.4863 17.8126C23.7176 17.6733 23.9529 17.5406 24.1916 17.4133C24.4296 17.286 24.6709 17.164 24.9149 17.0486C25.1596 16.9333 25.4063 16.824 25.6563 16.72C25.9056 16.6166 26.1576 16.5193 26.4123 16.4286C26.6669 16.3373 26.9229 16.2526 27.1816 16.1746C27.4403 16.096 27.7009 16.024 27.9629 15.958C28.2249 15.8926 28.4889 15.8333 28.7536 15.7806C29.0189 15.728 29.2849 15.682 29.5523 15.642C29.8196 15.6026 30.0876 15.5693 30.3563 15.5426C30.6256 15.5166 30.8949 15.4966 31.1649 15.4833C31.4349 15.47 31.7049 15.4633 31.9749 15.4633C32.3096 15.4653 32.6436 15.486 32.9756 15.526H33.2383C33.9636 15.5886 34.5396 15.038 34.5896 14.2753Z" fill="#51C6BD"/>
<path d="M40.2311 16.8394V21.768L30.9998 31C30.9351 31.0634 30.8778 31.1334 30.8271 31.2087C30.7764 31.284 30.7338 31.3634 30.6991 31.4474C30.6644 31.5307 30.6377 31.6174 30.6204 31.706C30.6024 31.7947 30.5938 31.8847 30.5938 31.9754C30.5938 32.066 30.6024 32.156 30.6204 32.2447C30.6377 32.334 30.6644 32.42 30.6991 32.504C30.7338 32.5874 30.7764 32.6667 30.8271 32.742C30.8778 32.8174 30.9351 32.8874 30.9998 32.9514C31.0638 33.0147 31.1337 33.0714 31.2091 33.1214C31.2844 33.1714 31.3644 33.2134 31.4478 33.2474C31.5317 33.282 31.6178 33.308 31.7064 33.3254C31.7951 33.3427 31.8844 33.352 31.9751 33.352C32.0658 33.352 32.1551 33.3427 32.2438 33.3254C32.3324 33.308 32.4191 33.282 32.5024 33.2474C32.5864 33.2134 32.6658 33.1714 32.7411 33.1214C32.8164 33.0714 32.8864 33.0147 32.9511 32.9514L42.1824 23.7194H47.1111C47.2931 23.7174 47.4691 23.682 47.6371 23.6127C47.8058 23.5434 47.9558 23.446 48.0871 23.3194L56.3431 15.0634C56.4398 14.9667 56.5204 14.8587 56.5851 14.7387C56.6498 14.618 56.6951 14.4914 56.7218 14.3574C56.7484 14.2234 56.7551 14.0887 56.7418 13.9527C56.7284 13.8174 56.6958 13.686 56.6438 13.56C56.5911 13.434 56.5218 13.318 56.4351 13.2127C56.3484 13.1074 56.2484 13.0174 56.1344 12.9414C56.0211 12.866 55.8984 12.8087 55.7678 12.7694C55.6371 12.73 55.5038 12.7107 55.3671 12.7114H51.2391V8.58336C51.2384 8.44736 51.2184 8.31336 51.1791 8.18336C51.1391 8.05269 51.0818 7.93069 51.0058 7.81736C50.9304 7.70403 50.8398 7.60403 50.7351 7.51669C50.6298 7.43003 50.5144 7.36003 50.3884 7.30736C50.2624 7.25803 50.1318 7.22669 49.9964 7.21469C49.8611 7.20269 49.7271 7.21003 49.5938 7.23669C49.4604 7.26336 49.3338 7.30803 49.2138 7.37136C49.0938 7.43469 48.9851 7.51336 48.8878 7.60803L40.6318 15.864C40.5051 15.9947 40.4071 16.1447 40.3378 16.3134C40.2684 16.482 40.2331 16.6574 40.2311 16.8394ZM42.9831 17.4147L48.4871 11.9107V14.0874C48.4871 14.178 48.4958 14.2674 48.5138 14.356C48.5311 14.4447 48.5571 14.5307 48.5918 14.614C48.6264 14.6974 48.6691 14.7767 48.7191 14.852C48.7691 14.9267 48.8264 14.9967 48.8904 15.0607C48.9538 15.124 49.0238 15.1814 49.0984 15.2314C49.1738 15.282 49.2531 15.324 49.3364 15.3587C49.4198 15.3934 49.5058 15.4194 49.5944 15.4367C49.6831 15.4547 49.7731 15.4634 49.8631 15.4634H52.0398L46.5358 20.9674H42.9831V17.4147Z" fill="#51C6BD"/>
</svg>
