<svg width="517" height="500" viewBox="0 0 517 500" fill="none" xmlns="http://www.w3.org/2000/svg">
<path d="M4.9834 145.596C6.41462 150.878 5.71114 141.16 8.51295 129.286C11.3148 117.412 16.13 122.221 16.13 122.221" stroke="#263238" stroke-width="1.48791" stroke-linecap="round" stroke-linejoin="round"/>
<path d="M4.11035 133.463L12.9039 130.111" stroke="#263238" stroke-width="1.48791" stroke-linecap="round" stroke-linejoin="round"/>
<path d="M20.1689 126.081C20.1689 126.081 14.917 136.239 22.8373 140.506" stroke="#263238" stroke-width="1.48791" stroke-linecap="round" stroke-linejoin="round"/>
<path d="M27.6289 123.237C27.6289 123.237 36.3133 127.752 30.8795 137.436" stroke="#263238" stroke-width="1.48791" stroke-linecap="round" stroke-linejoin="round"/>
<path d="M21.6855 129.512L27.9077 133.734" stroke="#263238" stroke-width="1.48791" stroke-linecap="round" stroke-linejoin="round"/>
<path d="M26.561 127.65L21.6973 134.862" stroke="#263238" stroke-width="1.48791" stroke-linecap="round" stroke-linejoin="round"/>
<path d="M54.5034 235.75C55.6869 229.039 50.8001 222.706 43.5883 221.604C36.3765 220.503 29.5707 225.051 28.3872 231.762C27.2036 238.473 32.0905 244.806 39.3022 245.908C46.514 247.009 53.3198 242.461 54.5034 235.75Z" stroke="#263238" stroke-width="1.48791" stroke-linecap="round" stroke-linejoin="round"/>
<path d="M62.3521 251.951C70.2922 250.436 75.4089 243.218 73.7804 235.829C72.152 228.44 64.3951 223.678 56.455 225.194C48.5149 226.709 43.3982 233.927 45.0267 241.316C46.6551 248.705 54.4119 253.467 62.3521 251.951Z" stroke="#263238" stroke-width="1.48791" stroke-linecap="round" stroke-linejoin="round"/>
<path d="M53.4999 228.668L47.4111 230.689" stroke="#263238" stroke-width="1.48791" stroke-linecap="round" stroke-linejoin="round"/>
<path d="M54.3489 231.005L45.5918 233.951" stroke="#263238" stroke-width="1.48791" stroke-linecap="round" stroke-linejoin="round"/>
<path d="M54.6764 233.827L44.9004 237.326" stroke="#263238" stroke-width="1.48791" stroke-linecap="round" stroke-linejoin="round"/>
<path d="M53.9851 237.676L45.0703 241.468" stroke="#263238" stroke-width="1.48791" stroke-linecap="round" stroke-linejoin="round"/>
<path d="M52.4076 240.633L45.6396 243.252" stroke="#263238" stroke-width="1.48791" stroke-linecap="round" stroke-linejoin="round"/>
<path d="M47.8353 214.989C47.4593 213.86 43.1656 213.161 42.9836 216.118C42.8017 219.075 47.5078 216.614 48.842 214.989C48.842 214.989 46.4162 218.025 47.435 218.624" stroke="#263238" stroke-width="1.48791" stroke-linecap="round" stroke-linejoin="round"/>
<path d="M71.6083 218.669L67.7998 226.039C67.7998 226.039 69.7041 222.348 71.7417 222.653C74.2524 223.07 72.5786 226.897 69.5464 225.486" stroke="#263238" stroke-width="1.48791" stroke-linecap="round" stroke-linejoin="round"/>
<path d="M486.069 339.01L492.049 344.27" stroke="#263238" stroke-width="1.48791" stroke-linecap="round" stroke-linejoin="round"/>
<path d="M492.049 337.634L487.04 344.598" stroke="#263238" stroke-width="1.48791" stroke-linecap="round" stroke-linejoin="round"/>
<path d="M497.932 339.631L503.923 337.554" stroke="#263238" stroke-width="1.48791" stroke-linecap="round" stroke-linejoin="round"/>
<path d="M506.798 331.753L510.437 334.744" stroke="#263238" stroke-width="1.48791" stroke-linecap="round" stroke-linejoin="round"/>
<path d="M513.226 328.153L508.617 342.871" stroke="#263238" stroke-width="1.48791" stroke-linecap="round" stroke-linejoin="round"/>
<path d="M234.101 256.333L250.196 246.028L271.507 247.416L272.841 272.564L257.194 282.971L237.885 281.661L234.101 256.333Z" stroke="#263238" stroke-width="1.48791" stroke-linecap="round" stroke-linejoin="round"/>
<path d="M237.886 281.661L253.472 271.22L272.842 272.564" stroke="#263238" stroke-width="1.48791" stroke-linecap="round" stroke-linejoin="round"/>
<path d="M253.471 271.221L250.196 246.028" stroke="#263238" stroke-width="1.48791" stroke-linecap="round" stroke-linejoin="round"/>
<path d="M234.101 256.333L255.363 258.625L271.507 247.417" stroke="#263238" stroke-width="1.48791" stroke-linecap="round" stroke-linejoin="round"/>
<path d="M255.363 258.625L257.195 282.971" stroke="#263238" stroke-width="1.48791" stroke-linecap="round" stroke-linejoin="round"/>
<path d="M421.955 171.85L414.823 192.471L437.019 189.683L421.955 171.85Z" stroke="#263238" stroke-width="1.48791" stroke-linecap="round" stroke-linejoin="round"/>
<path d="M421.955 171.85L425.921 190.959" stroke="#263238" stroke-width="1.48791" stroke-linecap="round" stroke-linejoin="round"/>
<path d="M425.291 187.9L427.887 187.516L428.493 190.756" stroke="#263238" stroke-width="1.48791" stroke-linecap="round" stroke-linejoin="round"/>
<path d="M142.43 360.558L153.516 365.625" stroke="#263238" stroke-width="1.48791" stroke-linecap="round" stroke-linejoin="round"/>
<path d="M149.938 356.686L146.76 367.465" stroke="#263238" stroke-width="1.48791" stroke-linecap="round" stroke-linejoin="round"/>
<path d="M151.479 351.426C151.66 351.251 151.884 351.118 152.131 351.038C152.378 350.957 152.642 350.932 152.901 350.964C153.161 350.996 153.409 351.084 153.625 351.221C153.841 351.358 154.02 351.54 154.147 351.754C155.263 353.379 153.08 356.788 153.08 356.788L157.531 355.207" stroke="#263238" stroke-width="1.48791" stroke-linecap="round" stroke-linejoin="round"/>
<path d="M229.468 5.51301C240.057 11.0549 227.928 24.5994 227.928 32.5003C227.928 40.4012 240.057 39.2725 246.121 41.5299C248.547 41.5299 253.399 41.5299 253.265 47.2637" stroke="#263238" stroke-width="1.48791" stroke-linecap="round" stroke-linejoin="round"/>
<path d="M217.666 12.7027C219.51 22.037 231.008 18.7299 238.067 20.8632C250.196 24.5315 243.464 36.1797 239.85 43.2228C237.679 47.4216 235.52 53.3134 239.401 57.2977" stroke="#263238" stroke-width="1.48791" stroke-linecap="round" stroke-linejoin="round"/>
<path d="M219.219 16.3264L231.845 6.56314" stroke="#263238" stroke-width="1.48791" stroke-linecap="round" stroke-linejoin="round"/>
<path d="M224.167 19.2379L233.676 11.9013" stroke="#263238" stroke-width="1.48791" stroke-linecap="round" stroke-linejoin="round"/>
<path d="M229.759 26.665L237.788 20.7958" stroke="#263238" stroke-width="1.48791" stroke-linecap="round" stroke-linejoin="round"/>
<path d="M228.098 35.4463L243.793 24.9494" stroke="#263238" stroke-width="1.48791" stroke-linecap="round" stroke-linejoin="round"/>
<path d="M234.113 39.5432L245.054 32.0712" stroke="#263238" stroke-width="1.48791" stroke-linecap="round" stroke-linejoin="round"/>
<path d="M238.771 55.4238L252.44 45.0623" stroke="#263238" stroke-width="1.48791" stroke-linecap="round" stroke-linejoin="round"/>
<path d="M239.11 47.2749L248.025 41.4395" stroke="#263238" stroke-width="1.48791" stroke-linecap="round" stroke-linejoin="round"/>
<path d="M60.6325 366.18C73.6564 361.333 79.9915 347.578 74.7823 335.458C69.5731 323.339 54.7923 317.443 41.7684 322.291C28.7445 327.138 22.4094 340.893 27.6186 353.013C32.8278 365.133 47.6086 371.028 60.6325 366.18Z" stroke="#263238" stroke-width="1.48791" stroke-linecap="round" stroke-linejoin="round"/>
<path d="M57.587 321.369C66.4412 311.696 73.9734 306.222 76.8722 308.005C81.2872 310.703 73.3669 329.123 59.1881 349.135C45.0092 369.147 29.9328 383.188 25.5179 380.479C22.6069 378.707 25.057 370.107 31.1215 358.718" stroke="#263238" stroke-width="1.48791" stroke-linecap="round" stroke-linejoin="round"/>
<path d="M26.3431 349.09C13.9957 345.783 6.11186 341.923 6.60915 338.841C7.32476 333.965 28.6597 332.837 54.1428 336.392C79.6259 339.948 99.6631 346.686 98.8989 351.539C98.3531 354.925 87.9828 356.472 73.246 355.953" stroke="#263238" stroke-width="1.48791" stroke-linecap="round" stroke-linejoin="round"/>
<path d="M29.5809 331.967C20.2658 316.323 15.6083 304.122 18.7618 302.215C22.91 299.72 38.9446 315.906 54.5789 338.333C70.2132 360.76 79.5162 381.032 75.3802 383.538C72.639 385.185 64.6945 378.662 55.1004 367.555" stroke="#263238" stroke-width="1.48791" stroke-linecap="round" stroke-linejoin="round"/>
<path d="M80.4502 318.231C79.9979 318.873 79.3515 319.375 78.5926 319.675C77.8336 319.975 76.9961 320.059 76.1859 319.917C75.3757 319.774 74.6291 319.411 74.0403 318.874C73.4515 318.337 73.047 317.649 72.8778 316.898C72.7086 316.147 72.7824 315.367 73.0897 314.655C73.3971 313.942 73.9242 313.331 74.6047 312.898C75.2851 312.464 76.0883 312.228 76.9128 312.219C77.7373 312.21 78.5462 312.429 79.2373 312.847C79.6976 313.126 80.0943 313.487 80.4045 313.909C80.7147 314.33 80.9324 314.805 81.0451 315.305C81.1577 315.805 81.1632 316.321 81.0611 316.823C80.9591 317.326 80.7514 317.804 80.4502 318.231Z" fill="#263238"/>
<path d="M66.6358 377.703C66.1835 378.344 65.5371 378.847 64.7781 379.147C64.0192 379.447 63.1817 379.531 62.3715 379.388C61.5613 379.246 60.8147 378.883 60.2259 378.345C59.6371 377.808 59.2326 377.121 59.0634 376.37C58.8942 375.619 58.9679 374.838 59.2753 374.126C59.5826 373.414 60.1098 372.802 60.7902 372.369C61.4706 371.936 62.2738 371.7 63.0983 371.691C63.9229 371.682 64.7318 371.9 65.4229 372.319C65.8832 372.598 66.2798 372.958 66.59 373.38C66.9002 373.802 67.1179 374.276 67.2306 374.776C67.3433 375.277 67.3488 375.793 67.2467 376.295C67.1446 376.797 66.937 377.275 66.6358 377.703Z" fill="#263238"/>
<path d="M44.3428 337.351C43.8905 337.993 43.2441 338.495 42.4851 338.795C41.7262 339.095 40.8887 339.179 40.0785 339.037C39.2683 338.894 38.5217 338.531 37.9329 337.994C37.3441 337.457 36.9396 336.769 36.7704 336.018C36.6012 335.267 36.675 334.486 36.9823 333.774C37.2896 333.062 37.8168 332.451 38.4972 332.017C39.1777 331.584 39.9809 331.348 40.8054 331.339C41.6299 331.33 42.4388 331.549 43.1299 331.967C44.057 332.532 44.7053 333.416 44.9327 334.426C45.1601 335.435 44.9479 336.487 44.3428 337.351Z" fill="#263238"/>
<path d="M310.344 168.407H324.632L331.776 156.895L324.632 145.382H310.344L303.2 156.895L310.344 168.407Z" stroke="#263238" stroke-width="1.48791" stroke-linecap="round" stroke-linejoin="round"/>
<path d="M308.27 193.679L301.126 182.166H286.838" stroke="#263238" stroke-width="1.48791" stroke-linecap="round" stroke-linejoin="round"/>
<path d="M288.754 156.895H303.042L310.186 145.382L303.042 133.858H288.754L281.61 145.382L288.754 156.895Z" stroke="#263238" stroke-width="1.48791" stroke-linecap="round" stroke-linejoin="round"/>
<path d="M310.344 145.382H324.632L331.776 133.858L324.632 122.345H310.344L303.2 133.858L310.344 145.382Z" stroke="#263238" stroke-width="1.48791" stroke-linecap="round" stroke-linejoin="round"/>
<path d="M310.187 147.165C311.245 147.165 312.103 146.367 312.103 145.382C312.103 144.397 311.245 143.599 310.187 143.599C309.129 143.599 308.271 144.397 308.271 145.382C308.271 146.367 309.129 147.165 310.187 147.165Z" fill="#263238"/>
<path d="M280.349 122.989C281.407 122.989 282.265 122.19 282.265 121.205C282.265 120.22 281.407 119.422 280.349 119.422C279.291 119.422 278.433 120.22 278.433 121.205C278.433 122.19 279.291 122.989 280.349 122.989Z" fill="#263238"/>
<path d="M306.354 193.679C306.354 193.326 306.466 192.982 306.676 192.688C306.887 192.395 307.186 192.167 307.537 192.032C307.887 191.897 308.272 191.861 308.644 191.93C309.016 191.999 309.357 192.169 309.625 192.418C309.893 192.668 310.076 192.985 310.149 193.331C310.223 193.677 310.185 194.036 310.04 194.362C309.895 194.687 309.65 194.966 309.335 195.162C309.019 195.358 308.649 195.462 308.27 195.462C308.018 195.462 307.769 195.416 307.537 195.327C307.304 195.237 307.093 195.106 306.915 194.94C306.737 194.775 306.596 194.578 306.499 194.362C306.403 194.145 306.354 193.913 306.354 193.679Z" fill="#263238"/>
<path d="M286.838 183.949C287.897 183.949 288.755 183.151 288.755 182.166C288.755 181.181 287.897 180.383 286.838 180.383C285.78 180.383 284.922 181.181 284.922 182.166C284.922 183.151 285.78 183.949 286.838 183.949Z" fill="#263238"/>
<path d="M345.604 134.185C345.604 133.829 345.717 133.482 345.929 133.187C346.142 132.891 346.444 132.661 346.797 132.526C347.15 132.39 347.538 132.355 347.913 132.426C348.287 132.496 348.631 132.668 348.9 132.92C349.169 133.172 349.352 133.493 349.425 133.842C349.498 134.191 349.458 134.552 349.31 134.88C349.162 135.207 348.913 135.487 348.595 135.683C348.276 135.878 347.902 135.982 347.52 135.98C347.267 135.98 347.017 135.933 346.784 135.843C346.55 135.752 346.339 135.62 346.161 135.453C345.982 135.286 345.842 135.088 345.746 134.871C345.65 134.653 345.602 134.42 345.604 134.185Z" fill="#263238"/>
<path d="M300.981 183.949C302.039 183.949 302.897 183.151 302.897 182.166C302.897 181.181 302.039 180.383 300.981 180.383C299.922 180.383 299.064 181.181 299.064 182.166C299.064 183.151 299.922 183.949 300.981 183.949Z" fill="#263238"/>
<path d="M329.859 134.185C329.859 133.83 329.972 133.483 330.184 133.188C330.396 132.893 330.697 132.663 331.05 132.527C331.402 132.391 331.79 132.356 332.164 132.425C332.538 132.494 332.882 132.665 333.152 132.916C333.421 133.167 333.605 133.487 333.679 133.835C333.754 134.183 333.716 134.544 333.57 134.872C333.424 135.2 333.176 135.48 332.859 135.677C332.542 135.874 332.169 135.98 331.788 135.98C331.276 135.98 330.786 135.79 330.424 135.454C330.063 135.117 329.859 134.661 329.859 134.185Z" fill="#263238"/>
<path d="M308.271 168.418C308.268 168.062 308.38 167.714 308.591 167.417C308.801 167.12 309.103 166.888 309.455 166.751C309.808 166.614 310.197 166.577 310.572 166.646C310.948 166.715 311.292 166.886 311.563 167.138C311.833 167.39 312.017 167.71 312.091 168.06C312.165 168.409 312.126 168.771 311.978 169.099C311.831 169.427 311.582 169.708 311.263 169.904C310.944 170.1 310.569 170.204 310.187 170.202C309.68 170.199 309.194 170.01 308.835 169.676C308.477 169.342 308.274 168.89 308.271 168.418Z" fill="#263238"/>
<path d="M331.788 134.163H347.519" stroke="#263238" stroke-width="1.48791" stroke-linecap="round" stroke-linejoin="round"/>
<path d="M310.186 168.419L300.98 182.166" stroke="#263238" stroke-width="1.48791" stroke-linecap="round" stroke-linejoin="round"/>
<path d="M288.754 133.857L280.349 121.205" stroke="#263238" stroke-width="1.48791" stroke-linecap="round" stroke-linejoin="round"/>
<path d="M390.093 88.4724C391.741 83.2888 395.176 78.7537 399.868 75.5666C404.56 72.3796 410.248 70.7176 416.055 70.837C421.863 70.9563 427.467 72.8505 432.003 76.2272C436.539 79.604 439.756 84.2758 441.156 89.5221" stroke="#263238" stroke-width="1.48791" stroke-linecap="round" stroke-linejoin="round"/>
<path d="M412.435 119.895C405.981 119.208 400.026 116.335 395.702 111.825C391.378 107.314 388.989 101.481 388.989 95.4365" stroke="#263238" stroke-width="1.48791" stroke-linecap="round" stroke-linejoin="round"/>
<path d="M441.92 95.4365C441.92 101.963 439.134 108.223 434.176 112.839C429.218 117.456 422.492 120.05 415.479 120.053" stroke="#263238" stroke-width="1.48791" stroke-linecap="round" stroke-linejoin="round"/>
<path d="M443.423 79.8269C451.695 78.845 457.238 79.3755 458.1 81.678C459.81 86.2606 442.113 96.1367 418.571 103.744C395.029 111.352 374.567 113.79 372.845 109.196C371.935 106.746 376.568 102.785 384.67 98.4618" stroke="#263238" stroke-width="1.48791" stroke-linecap="round" stroke-linejoin="round"/>
<path d="M300.98 62.9634L303.515 67.7378L309.18 68.5053L305.08 72.23L306.05 77.4785L300.98 74.9953L295.911 77.4785L296.881 72.23L292.781 68.5053L298.445 67.7378L300.98 62.9634Z" stroke="#263238" stroke-width="1.48791" stroke-linecap="round" stroke-linejoin="round"/>
<path d="M121.908 50.2431C121.904 54.488 120.092 58.5584 116.867 61.561C113.643 64.5637 109.27 66.2534 104.709 66.2594C104.151 66.2594 103.605 66.2368 103.071 66.1917C99.7515 65.8986 96.5948 64.7145 93.9847 62.7832C91.3747 60.852 89.4237 58.2567 88.369 55.313C87.3143 52.3692 87.2012 49.2037 88.0435 46.2012C88.8858 43.1988 90.6473 40.4887 93.1137 38.4004C95.5802 36.312 98.6454 34.9354 101.937 34.4379C105.228 33.9404 108.604 34.3433 111.654 35.5977C114.704 36.8521 117.297 38.9041 119.117 41.504C120.937 44.104 121.907 47.14 121.908 50.2431V50.2431Z" stroke="#263238" stroke-width="1.48791" stroke-linecap="round" stroke-linejoin="round"/>
<path d="M119.154 53.1329C119.157 53.6245 119.002 54.1057 118.71 54.5156C118.419 54.9254 118.003 55.2454 117.515 55.4351C117.028 55.6248 116.491 55.6756 115.973 55.581C115.454 55.4865 114.978 55.2509 114.603 54.9041C114.229 54.5572 113.973 54.1148 113.87 53.6328C113.766 53.1508 113.818 52.651 114.019 52.1966C114.221 51.7422 114.563 51.3537 115.002 51.0804C115.441 50.807 115.957 50.6611 116.486 50.6611C117.191 50.6611 117.868 50.9211 118.368 51.3844C118.868 51.8476 119.151 52.4763 119.154 53.1329V53.1329Z" stroke="#263238" stroke-width="1.48791" stroke-linecap="round" stroke-linejoin="round"/>
<path d="M95.1992 59.4309C95.2001 60.0192 95.0615 60.6004 94.7931 61.1331C94.5247 61.6657 94.1333 62.1367 93.6467 62.5122C91.3849 60.7748 89.6429 58.5239 88.5889 55.9771C89.2563 55.5957 90.0253 55.3962 90.8085 55.4014C91.3822 55.3939 91.9518 55.4926 92.4842 55.6918C93.0165 55.8909 93.501 56.1866 93.9096 56.5615C94.3181 56.9364 94.6425 57.3831 94.8639 57.8757C95.0853 58.3683 95.1992 58.8969 95.1992 59.4309Z" stroke="#263238" stroke-width="1.48791" stroke-linecap="round" stroke-linejoin="round"/>
<path d="M116.486 61.948C113.305 64.7513 109.089 66.3109 104.709 66.3048C104.151 66.3048 103.605 66.2822 103.071 66.2371C102.974 65.8028 102.925 65.3602 102.926 64.9165C102.927 63.416 103.472 61.9597 104.473 60.7837C105.475 59.6077 106.874 58.7809 108.443 58.4373C110.013 58.0937 111.661 58.2534 113.121 58.8906C114.581 59.5279 115.767 60.6052 116.486 61.948V61.948Z" stroke="#263238" stroke-width="1.48791" stroke-linecap="round" stroke-linejoin="round"/>
<path d="M100.536 43.8887C102.72 43.8887 104.49 42.2413 104.49 40.2091C104.49 38.177 102.72 36.5296 100.536 36.5296C98.3523 36.5296 96.582 38.177 96.582 40.2091C96.582 42.2413 98.3523 43.8887 100.536 43.8887Z" stroke="#263238" stroke-width="1.48791" stroke-linecap="round" stroke-linejoin="round"/>
<path d="M104.199 50.6606C104.199 50.9977 104.092 51.3272 103.89 51.6075C103.689 51.8878 103.403 52.1062 103.068 52.2352C102.734 52.3642 102.366 52.398 102.01 52.3322C101.655 52.2664 101.329 52.1041 101.073 51.8657C100.816 51.6274 100.642 51.3237 100.571 50.9931C100.501 50.6625 100.537 50.3198 100.676 50.0084C100.814 49.6969 101.049 49.4308 101.35 49.2435C101.651 49.0562 102.005 48.9563 102.368 48.9563C102.608 48.9563 102.846 49.0003 103.068 49.086C103.291 49.1716 103.493 49.2972 103.663 49.4554C103.833 49.6137 103.968 49.8016 104.06 50.0084C104.152 50.2152 104.199 50.4368 104.199 50.6606Z" stroke="#263238" stroke-width="1.48791" stroke-linecap="round" stroke-linejoin="round"/>
<path d="M118.669 40.8981C118.187 41.045 117.683 41.1175 117.177 41.1126C116.515 41.1126 115.859 40.991 115.248 40.7549C114.636 40.5188 114.081 40.1728 113.613 39.7366C113.146 39.3005 112.775 38.7828 112.523 38.2132C112.271 37.6436 112.141 37.0332 112.143 36.4172C112.131 36.2217 112.131 36.0257 112.143 35.8302C114.741 36.9829 116.985 38.7257 118.669 40.8981V40.8981Z" stroke="#263238" stroke-width="1.48791" stroke-linecap="round" stroke-linejoin="round"/>
<path d="M514.136 236.096L515.991 232.213L512.983 230.678C513.094 229.994 513.115 229.301 513.044 228.612L516.125 227.213L514.487 223.251L511.188 224.132C510.746 223.579 510.233 223.078 509.66 222.642L510.788 219.617L506.616 217.89L504.954 220.689C504.217 220.604 503.472 220.604 502.734 220.689L501.243 217.822L496.973 219.346L497.931 222.405C497.336 222.823 496.795 223.304 496.318 223.838L493.08 222.788L491.272 226.615L494.281 228.161C494.169 228.845 494.149 229.538 494.22 230.226L491.127 231.615L492.764 235.588L496.063 234.696C496.509 235.25 497.022 235.754 497.592 236.197L496.476 239.211L500.648 240.938L502.298 238.139C503.032 238.242 503.778 238.261 504.517 238.195L506.021 241.073L510.279 239.55L509.333 236.48C509.924 236.065 510.461 235.588 510.934 235.057L514.136 236.096ZM501.449 233.929C500.491 233.532 499.681 232.881 499.121 232.056C498.562 231.231 498.277 230.271 498.304 229.296C498.331 228.321 498.668 227.375 499.272 226.578C499.876 225.781 500.721 225.169 501.699 224.818C502.678 224.468 503.745 224.396 504.768 224.61C505.79 224.825 506.722 225.316 507.444 226.023C508.166 226.73 508.647 227.62 508.826 228.581C509.004 229.543 508.872 230.531 508.447 231.423C507.874 232.617 506.816 233.551 505.504 234.021C504.192 234.491 502.734 234.457 501.449 233.929V233.929Z" stroke="#263238" stroke-width="1.48791" stroke-linecap="round" stroke-linejoin="round"/>
<path d="M491.964 256.017L494.487 250.746L490.412 248.647C490.557 247.72 490.581 246.78 490.484 245.848L494.681 243.951L492.486 238.567L488.01 239.775C487.412 239.02 486.715 238.338 485.936 237.744L487.464 233.635L481.752 231.254L479.508 235.046C478.512 234.913 477.502 234.886 476.5 234.967L474.462 231.073L468.664 233.15L469.962 237.303C469.157 237.87 468.424 238.522 467.779 239.245L463.376 237.868L460.853 243.139L464.929 245.238C464.783 246.165 464.759 247.105 464.856 248.037L460.659 249.934L462.891 255.317L467.367 254.121C467.968 254.873 468.664 255.555 469.441 256.153L467.912 260.25L473.589 262.598L475.833 258.794C476.828 258.933 477.838 258.959 478.841 258.873L480.878 262.767L486.676 260.701L485.378 256.536C486.183 255.974 486.916 255.326 487.561 254.606L491.964 256.017ZM474.741 253.071C473.439 252.531 472.338 251.644 471.578 250.522C470.818 249.4 470.433 248.093 470.472 246.767C470.51 245.441 470.97 244.156 471.794 243.073C472.617 241.991 473.768 241.16 475.099 240.686C476.43 240.212 477.882 240.116 479.272 240.41C480.662 240.704 481.927 241.376 482.907 242.339C483.886 243.303 484.537 244.515 484.776 245.823C485.015 247.13 484.832 248.474 484.25 249.685C483.865 250.489 483.314 251.215 482.628 251.82C481.941 252.425 481.133 252.899 480.25 253.213C479.367 253.528 478.426 253.677 477.48 253.653C476.535 253.629 475.604 253.431 474.741 253.071Z" stroke="#263238" stroke-width="1.48791" stroke-linecap="round" stroke-linejoin="round"/>
<path d="M240.529 205.981C238.867 208.912 236.991 211.732 234.914 214.424C224.137 228.366 208.303 238.209 190.335 242.132C172.368 246.055 153.481 243.794 137.166 235.768C135.48 234.944 133.83 234.063 132.253 233.138C130.677 232.212 129.136 231.264 127.657 230.248C125.861 229.04 124.139 227.754 122.49 226.411C122.384 226.337 122.287 226.254 122.199 226.162C111.45 217.311 103.594 205.824 99.528 193.015C95.4618 180.205 95.3496 166.59 99.2041 153.724C103.059 140.858 110.724 129.26 121.326 120.256C131.927 111.252 145.036 105.205 159.155 102.805C173.275 100.405 187.835 101.749 201.172 106.684C214.509 111.619 226.086 119.945 234.579 130.712C243.073 141.479 248.14 154.252 249.203 167.572C250.266 180.892 247.281 194.221 240.59 206.038L240.529 205.981Z" fill="#19A89D"/>
<g opacity="0.6">
<path d="M240.529 205.981C238.867 208.911 236.991 211.732 234.913 214.424L233.434 213.295L230.886 212.042L228.206 210.733L228.655 207.719L228.509 204.999C228.351 202.279 230.462 204.502 232.148 203.678C233.463 202.804 234.525 201.641 235.241 200.292C235.241 200.292 236.454 196.669 236.053 195.213C235.4 193.536 234.631 191.899 233.749 190.315L229.407 195.958L225.768 195.699L222.323 194.005L221.875 189.547L220.104 188.689L219.364 186.127L209.794 183.633L208.702 181.849C207.611 180.066 203.208 179.152 203.208 179.152L204.287 176.827L205.986 174.231C207.696 171.635 209.467 175.946 209.467 175.946L211.492 176.928L215.252 173.994L216.247 169.784L222.372 170.111C222.252 169.541 222.345 168.95 222.637 168.437C222.928 167.923 223.4 167.518 223.973 167.289C226.011 166.544 225.113 162.424 224.337 160.901C223.561 159.377 220.698 160.607 220.698 160.607C220.698 160.607 217.581 156.194 217.156 154.433C216.732 152.672 223.1 153.304 225.829 151.532C228.558 149.76 227.624 146.239 226.29 146.16C224.955 146.081 228.897 138.146 236.478 140.324C238.588 140.934 239.923 140.719 240.747 140.042C246.435 150.233 249.386 161.554 249.348 173.037C249.31 184.52 246.284 195.823 240.529 205.981Z" fill="white"/>
<path d="M187.489 175.449L184.893 178.486C184.893 178.486 183.79 176.036 182.213 177.357L179.787 179.366L178.028 183.949L174.875 185.845L172.946 184.908L171.127 184.005L169.15 183.034L167.258 186.42L165.717 189.129C166.468 190.459 167.402 191.692 168.495 192.798L171.843 198.294L175.918 200.213C177.618 200.272 179.309 200.461 180.976 200.777L183.778 202.143L182.783 207.787C182.783 207.787 180.673 210.981 179.266 210.101L177.847 209.231L175.542 216.658L175.445 220.744C175.445 220.744 174.074 221.275 172.692 221.704C171.309 222.133 172.182 221.907 169.283 222.742C166.385 223.577 166.615 223.543 164.262 224.164C162.256 224.818 160.326 225.657 158.501 226.67L158.707 230.598L153.164 231.354L150.059 229.819L150.823 227.336L151.187 223.453L150.762 220.552L149.428 217.99L153.164 214.841L152.339 212.866L150.217 208.938L145.729 211.195L143.424 212.324L138.209 210.146L137.639 207.2L135.892 201.906L134.267 198.61L131.38 194.976L130.652 191.849L132.278 188.983L133.139 187.47L130.483 184.14L129.755 181.77L125.279 177.989C125.279 177.989 126.577 177.91 126.286 176.228C125.995 174.546 128.845 171.713 128.845 171.713C130.458 172.503 135.298 175.641 135.298 175.641L139.531 176.183C139.531 176.183 140.38 176.183 141.205 174.693C142.168 173.323 143.3 172.061 144.577 170.935C144.577 170.935 142.624 164.625 144.019 163.779C145.413 162.932 146.833 158.801 146.833 158.801L147.948 156.826C147.948 156.826 145.316 155.754 144.819 154.456C144.322 153.158 137.833 154.884 137.833 154.884L133.357 157.774L129.828 160.314L128.299 163.011C128.299 163.011 125.182 159.523 125.17 161.476C124.932 163.478 124.461 165.45 123.763 167.357C123.763 167.357 124.406 167.673 123.557 169.185C122.708 170.698 121.786 170.619 119.918 170.833C117.483 170.856 115.05 170.701 112.641 170.37C112.641 170.37 111.428 174.546 112.265 175.269L113.09 175.969C113.09 175.969 111.792 179.005 110.506 178.373L107.377 176.838L102.998 178.486L98.1467 183.474L97.0672 183.271C94.0937 164.712 99.1138 145.81 111.036 130.677C122.958 115.543 140.818 105.401 160.732 102.456C161.011 103.585 161.315 104.646 161.315 104.646L160.102 110.222L158.549 112.976L157.215 115.335L155.335 118.653L160.15 122.784L159.119 127.671L156.512 129.195L155.76 132.863L160.235 141.001L161.448 144.196C160.699 145.725 160.33 147.391 160.369 149.072C160.369 149.072 160.914 152.119 163.304 153.327C165.693 154.535 168.835 155.957 168.835 155.957L168.58 160.472L167.5 161.6L169.296 166.465C174.766 168.463 174.244 170.133 174.766 168.463L175.299 166.804L179.023 165.551L183.766 170.822C184.317 170.815 184.862 170.937 185.35 171.178C185.837 171.419 186.252 171.77 186.555 172.199C187.938 173.824 190.097 172.413 187.489 175.449Z" fill="white"/>
<path d="M123.205 214.762C123.339 216.365 121.155 218.374 121.155 218.374L122.938 219.243L123.484 223.758L122.138 226.151C112.598 218.308 105.321 208.367 100.973 197.234L101.943 192.448L106.225 191.884C106.225 191.884 110.057 189.513 111.755 190.145C113.453 190.777 115.006 194.66 115.006 194.66C115.006 194.66 116.219 199.897 116.061 199.796H115.988H116.085L117.832 200.654L118.329 202.719L115.903 207.008H111.998C111.998 207.008 111.222 206.624 111.149 208.509C111.212 209.163 111.426 209.797 111.775 210.368C112.125 210.938 112.602 211.432 113.174 211.816L117.395 210.812L118.523 206.749L122.671 205.992C122.671 205.992 122.077 208.487 123.047 208.961L124.03 209.446L124.612 212.426C124.178 212.666 123.819 213.008 123.572 213.418C123.325 213.829 123.198 214.292 123.205 214.762Z" fill="white"/>
<path d="M143.266 221.151C142.89 220.18 142.733 219.334 140.149 218.07C137.566 216.805 137.723 217.257 136.704 218.307C136.266 218.846 135.667 219.255 134.981 219.482C134.296 219.708 133.554 219.743 132.847 219.582C131.149 219.232 132.035 221.015 132.035 221.015L132.447 225.835L127.656 230.237C129.136 231.253 130.668 232.216 132.253 233.126L133.272 230.214L141.229 232.381C139.543 231.919 140.537 229.774 140.537 229.774L138.839 228.939C138.839 228.939 143.642 222.099 143.266 221.151Z" fill="white"/>
<path d="M193.384 196.094L190.776 193.645L187.793 194.514L186.58 196.771L185.67 198.396L186.883 200.654L189.309 203.397L190.691 200.936C190.691 200.936 194.536 200.936 196.55 198.871C198.563 196.805 193.384 196.094 193.384 196.094Z" fill="white"/>
<path d="M185.719 185.044L190.57 187.414L190.764 186.353C191.017 185.503 191.464 184.714 192.074 184.039L188.363 180.382L185.719 185.044Z" fill="white"/>
<path d="M184.069 237.584L182.674 235.677L181.049 234.887H176.088L173.262 239.876C173.262 239.876 170.557 239.537 167.004 239.244C163.45 238.95 164.323 240.316 164.323 240.316L163.401 243.454C172.368 244.481 181.459 244.026 190.255 242.111C189.233 241.447 188.172 240.837 187.077 240.282L184.069 237.584Z" fill="white"/>
</g>
<path d="M240.529 205.981C238.867 208.912 236.991 211.732 234.914 214.424C224.137 228.366 208.303 238.209 190.335 242.132C172.368 246.055 153.481 243.794 137.166 235.768C135.48 234.944 133.83 234.063 132.253 233.138C130.677 232.212 129.136 231.264 127.657 230.248C125.861 229.04 124.139 227.754 122.49 226.411C122.384 226.337 122.287 226.254 122.199 226.162V226.162C111.45 217.311 103.594 205.824 99.528 193.015C95.4618 180.205 95.3496 166.59 99.2041 153.724C103.059 140.858 110.724 129.26 121.326 120.256C131.927 111.252 145.036 105.205 159.155 102.805C173.275 100.405 187.835 101.749 201.172 106.684C214.509 111.619 226.086 119.945 234.579 130.712C243.073 141.479 248.14 154.252 249.203 167.572C250.266 180.892 247.281 194.221 240.59 206.038L240.529 205.981Z" stroke="#263238" stroke-width="1.48791" stroke-linecap="round" stroke-linejoin="round"/>
<path d="M190.255 242.112C181.459 244.027 172.368 244.482 163.401 243.455L164.323 240.317C164.323 240.317 163.45 238.951 167.004 239.245C170.557 239.538 173.262 239.877 173.262 239.877L176.088 234.888H181.049L182.674 235.678L184.069 237.585L187.077 240.283C188.172 240.838 189.233 241.448 190.255 242.112Z" stroke="#263238" stroke-width="1.48791" stroke-linecap="round" stroke-linejoin="round"/>
<path d="M240.796 140.054C239.971 140.731 238.637 140.946 236.526 140.336C228.946 138.158 225.016 146.081 226.338 146.172C227.66 146.262 228.594 149.829 225.877 151.544C223.16 153.26 216.78 152.673 217.205 154.445C217.629 156.217 220.747 160.619 220.747 160.619C220.747 160.619 223.536 159.4 224.325 160.913C225.113 162.425 226.011 166.556 223.973 167.301C223.4 167.53 222.928 167.935 222.637 168.449C222.345 168.962 222.252 169.553 222.372 170.123L216.247 169.795L215.252 174.005L211.492 176.94L209.467 175.958C209.467 175.958 207.696 171.647 205.986 174.243L204.287 176.839L203.208 179.164C203.208 179.164 207.611 180.078 208.702 181.861L209.794 183.645L219.364 186.139L220.104 188.701L221.875 189.559L222.323 194.017L225.889 195.756L229.528 196.015L233.87 190.372C234.752 191.956 235.522 193.593 236.175 195.27C236.599 196.726 235.362 200.349 235.362 200.349C234.646 201.698 233.584 202.861 232.269 203.735C230.535 204.559 228.412 202.336 228.63 205.056L228.776 207.776L228.327 210.79L231.008 212.099L233.555 213.352L235.035 214.481" stroke="#263238" stroke-width="1.48791" stroke-linecap="round" stroke-linejoin="round"/>
<path d="M97.1641 183.272L98.2435 183.475L103.095 178.486L107.474 176.838L110.603 178.373C111.889 179.005 113.187 175.969 113.187 175.969L112.362 175.269C111.525 174.547 112.738 170.371 112.738 170.371C115.147 170.702 117.58 170.856 120.015 170.834C121.932 170.619 122.841 170.687 123.654 169.186C124.467 167.685 123.86 167.357 123.86 167.357C124.557 165.45 125.029 163.479 125.267 161.477C125.267 159.524 128.396 163.012 128.396 163.012L129.925 160.314L133.345 157.786L137.821 154.896C137.821 154.896 144.31 153.158 144.807 154.467C145.304 155.777 147.936 156.838 147.936 156.838L146.82 158.813C146.82 158.813 145.389 162.921 144.006 163.79C142.624 164.66 144.564 170.946 144.564 170.946C143.287 172.073 142.156 173.335 141.192 174.705C140.343 176.217 139.519 176.195 139.519 176.195L135.286 175.653C135.286 175.653 130.434 172.515 128.833 171.725C128.833 171.725 125.983 174.558 126.274 176.24C126.565 177.922 125.267 178.001 125.267 178.001L129.743 181.782L130.47 184.152L133.127 187.482L132.265 188.994L130.64 191.861L131.368 194.988L134.255 198.622L135.892 201.907L137.663 207.223L138.233 210.169L143.448 212.347L145.753 211.219L150.241 208.961L152.363 212.889L153.188 214.864L149.452 218.013L150.787 220.575L151.211 223.476L150.847 227.359L150.083 229.842L153.188 231.377L158.731 230.632L158.525 226.693C160.35 225.68 162.28 224.841 164.286 224.187C166.639 223.567 166.409 223.6 169.308 222.765C172.206 221.93 171.321 222.156 172.716 221.727C174.111 221.298 175.469 220.767 175.469 220.767L175.566 216.681L177.871 209.255L179.29 210.124C180.697 211.004 182.807 207.81 182.807 207.81L183.802 202.166L180.939 200.778C179.273 200.461 177.581 200.272 175.881 200.214L171.891 198.261L168.543 192.764C167.45 191.659 166.517 190.426 165.766 189.096L167.306 186.387L169.198 183.001L171.175 183.972L172.995 184.875L174.923 185.811L178.077 183.915L179.836 179.333L182.261 177.324C183.838 175.992 184.942 178.452 184.942 178.452L187.537 175.416C190.145 172.38 187.986 173.791 186.652 172.233C186.349 171.804 185.934 171.453 185.447 171.213C184.959 170.972 184.414 170.849 183.862 170.856L179.12 165.585L175.348 166.917L174.814 168.576C174.293 170.247 174.814 168.576 169.344 166.578L167.549 161.714L168.628 160.585L168.883 156.07C168.883 156.07 165.742 154.637 163.352 153.44C160.963 152.244 160.417 149.185 160.417 149.185C160.379 147.505 160.748 145.838 161.496 144.309L160.284 141.115L155.808 132.977L156.56 129.309L159.168 127.785L160.199 122.898L155.517 118.767L157.397 115.448L158.731 113.089L160.284 110.335L161.496 104.759C161.496 104.759 161.193 103.721 160.914 102.57" stroke="#263238" stroke-width="1.48791" stroke-linecap="round" stroke-linejoin="round"/>
<path d="M122.551 226.4C122.456 226.299 122.351 226.208 122.235 226.129V226.129L123.582 223.736L123.036 219.221L121.253 218.352C121.253 218.352 123.436 216.343 123.303 214.74C123.279 214.262 123.394 213.787 123.635 213.364C123.876 212.941 124.234 212.586 124.673 212.336L124.091 209.356L123.109 208.871C122.138 208.397 122.733 205.902 122.733 205.902L118.584 206.659L117.456 210.722L113.236 211.727C112.663 211.343 112.186 210.849 111.836 210.278C111.487 209.707 111.273 209.074 111.21 208.419C111.283 206.534 112.059 206.918 112.059 206.918H115.965L118.39 202.629L117.893 200.564L116.146 199.706" stroke="#263238" stroke-width="1.48791" stroke-linecap="round" stroke-linejoin="round"/>
<path d="M116.037 199.706C116.231 199.807 114.982 194.57 114.982 194.57C114.982 194.57 113.429 190.744 111.731 190.056C110.033 189.367 106.2 191.794 106.2 191.794L101.919 192.358L100.948 197.144" stroke="#263238" stroke-width="1.48791" stroke-linecap="round" stroke-linejoin="round"/>
<path d="M133.272 230.215L132.253 233.127C130.636 232.209 129.104 231.246 127.656 230.237L132.447 225.836L132.035 221.016C132.035 221.016 131.149 219.233 132.847 219.582C133.554 219.744 134.296 219.709 134.981 219.482C135.667 219.256 136.266 218.847 136.704 218.307C137.699 217.257 137.578 216.806 140.149 218.07C142.72 219.334 142.89 220.181 143.266 221.151C143.642 222.122 138.839 228.973 138.839 228.973L140.537 229.809C140.537 229.809 139.543 231.953 141.229 232.416L133.272 230.215Z" stroke="#263238" stroke-width="1.48791" stroke-linecap="round" stroke-linejoin="round"/>
<path d="M187.792 194.514L190.776 193.645L193.384 196.094C193.384 196.094 198.539 196.715 196.525 198.803C194.512 200.891 190.667 200.869 190.667 200.869L189.26 203.329L186.834 200.587L185.621 198.329L186.531 196.704L187.792 194.514Z" stroke="#263238" stroke-width="1.48791" stroke-linecap="round" stroke-linejoin="round"/>
<path d="M192.074 184.039C191.464 184.714 191.017 185.503 190.764 186.353L190.57 187.414L185.719 185.044L188.363 180.382L192.074 184.039Z" stroke="#263238" stroke-width="1.48791" stroke-linecap="round" stroke-linejoin="round"/>
<path d="M455.285 450.278C448.784 455.312 398.704 487.299 327.239 482.141C323.394 451.87 308.73 327.509 325.408 308.005C325.408 308.005 365.87 290.048 403.143 297.587C440.415 305.127 454.922 312.351 457.578 318.604C459.591 323.333 456.717 411.394 455.285 450.278Z" fill="#263238"/>
<path d="M401.905 310.872C380.437 328.175 352.783 324.518 353.389 311.233C353.486 309.156 355.876 306.583 355.876 306.583L355.039 305.387L351.4 300.274C348.744 296.447 345.42 291.639 343.104 288.14C341.163 285.16 389.546 257.462 389.546 273.388C389.546 295.826 401.384 300.048 401.384 300.048C405.847 301.718 410.007 304.359 401.905 310.872Z" fill="white" stroke="#263238" stroke-width="1.48791" stroke-linecap="round" stroke-linejoin="round"/>
<path d="M415.479 345.139C415.479 345.139 411.149 358.955 413.198 362.916" stroke="white" stroke-width="1.48791" stroke-linecap="round" stroke-linejoin="round"/>
<path d="M410.421 305.026C410.421 318.356 367.69 331.415 355.173 318.04" stroke="white" stroke-width="1.48791" stroke-linecap="round" stroke-linejoin="round"/>
<path d="M375.27 289.642C375.27 289.642 372.408 299.687 359.066 307.532C358.429 306.515 357.402 305.761 356.191 305.421C355.79 305.36 355.38 305.36 354.979 305.421L351.34 300.308C358.241 295.68 375.27 289.642 375.27 289.642Z" fill="#263238"/>
<path d="M381.262 277.293C381.262 277.293 381.117 287.203 378.836 289.224C361.916 304.326 345.372 305.522 342.643 301.538C324.268 274.72 328.61 267.677 326.742 263.083C323.431 255.024 319.368 241.863 321.163 233.895C325.165 216.095 361.189 202.291 380.158 220.192C389.255 228.759 392.13 247.349 390.213 262.835" fill="white"/>
<path d="M381.262 277.293C381.262 277.293 381.117 287.203 378.836 289.224C361.916 304.326 345.372 305.522 342.643 301.538C324.268 274.72 328.61 267.677 326.742 263.083C323.431 255.024 319.368 241.863 321.163 233.895C325.165 216.095 361.189 202.291 380.158 220.192C389.255 228.759 392.13 247.349 390.213 262.835" stroke="#263238" stroke-width="1.48791" stroke-linecap="round" stroke-linejoin="round"/>
<path d="M329.059 254.798C329.059 254.798 324.001 252.687 322.909 255.204" stroke="#263238" stroke-width="1.48791" stroke-linecap="round" stroke-linejoin="round"/>
<path d="M341.321 254.956C341.321 254.956 351.837 250.859 356.567 255.836" stroke="#263238" stroke-width="1.48791" stroke-linecap="round" stroke-linejoin="round"/>
<path d="M353.002 261.898C353.172 263.365 352.408 264.641 351.28 264.765C350.152 264.889 349.108 263.771 348.939 262.304C348.769 260.837 349.533 259.55 350.661 259.437C351.789 259.324 352.784 260.43 353.002 261.898Z" fill="#263238"/>
<path d="M332.382 262.338C332.564 263.805 331.787 265.092 330.659 265.205C329.531 265.318 328.488 264.223 328.319 262.756C328.149 261.288 328.913 260.002 330.041 259.889C331.169 259.776 332.188 260.871 332.382 262.338Z" fill="#263238"/>
<path d="M332.892 258.478C334.359 260.679 333.559 264.438 331.618 269.596C329.678 274.754 331.388 276.616 338.835 277.135" fill="white"/>
<path d="M332.892 258.478C334.359 260.679 333.559 264.438 331.618 269.596C329.678 274.754 331.388 276.616 338.835 277.135" stroke="#263238" stroke-width="1.48791" stroke-linecap="round" stroke-linejoin="round"/>
<path d="M338.835 286.064C338.835 286.064 348.538 285.24 352.977 282.971" stroke="#263238" stroke-width="1.48791" stroke-linecap="round" stroke-linejoin="round"/>
<path d="M400.305 234.888C400.305 228.183 393.198 214.424 380.729 212.878C373.561 205.903 363.348 203.341 350.952 205.993C322.303 212.111 313.583 238.432 312.333 242.789C312.212 243.195 312.151 243.421 312.151 243.421L319.817 241.615L316.518 247.608L320.533 250.08L319.611 251.028L324.268 255.204L322.813 247.574C323.71 242.653 329.799 235.768 329.799 235.768C327.577 238.449 326.192 241.647 325.797 245.012C328.222 239.154 342.777 233.725 342.777 233.725C338.059 237.292 335.5 244.267 335.5 244.267C339.987 239.12 350.503 235.791 357.235 234.019C359.503 239.109 363.105 244.425 368.248 247.371C373.1 250.148 372.93 255.882 372.93 255.882C378.15 259.258 381.995 264.173 383.846 269.832L389.716 277.304C389.716 277.304 400.305 265.216 400.305 234.888Z" fill="#263238"/>
<path d="M375.598 257.801C373.633 253.884 380.765 243.274 385.822 244.583C388.661 245.328 392.372 250.148 393.1 255.205C393.828 260.261 389.983 269.878 385.883 271.966C383.275 273.32 381.129 269.629 381.129 269.629" fill="white"/>
<path d="M375.598 257.801C373.633 253.884 380.765 243.274 385.822 244.583C388.661 245.328 392.372 250.148 393.1 255.205C393.828 260.261 389.983 269.878 385.883 271.966C383.275 273.32 381.129 269.629 381.129 269.629" stroke="#263238" stroke-width="1.48791" stroke-linecap="round" stroke-linejoin="round"/>
<path d="M66.1621 449.375L203.208 419.555L489.065 450.278L415.466 497.119L66.1621 449.375Z" fill="white"/>
<path d="M66.1621 449.375L203.208 419.555L489.065 450.278" fill="white"/>
<path d="M66.1621 449.375L203.208 419.555L489.065 450.278" stroke="#263238" stroke-width="1.48791" stroke-linecap="round" stroke-linejoin="round"/>
<path d="M184.76 455.357L240.238 432.535L310.38 435.91L279.184 460.73L184.76 455.357Z" fill="white" stroke="#263238" stroke-width="1.48791" stroke-linecap="round" stroke-linejoin="round"/>
<path d="M328.113 306.877C310.32 313.649 306.487 328.875 276.249 389.046C276.249 389.046 262.822 391.608 255.63 406.789C248.437 421.97 260.481 433.957 274.345 433.551C274.345 433.551 279.912 438.066 291.325 437.603C302.739 437.14 353.183 365.31 353.183 365.31L328.113 306.877Z" fill="#263238"/>
<path d="M281.55 392.579C289.506 399.17 294.079 408.843 291.653 419.566" stroke="white" stroke-width="1.48791" stroke-linecap="round" stroke-linejoin="round"/>
<path d="M289.228 395.751C289.228 395.751 299.004 397.737 300.52 409.386" stroke="white" stroke-width="1.48791" stroke-linecap="round" stroke-linejoin="round"/>
<path d="M317.828 361.664C313.209 351.059 311.613 339.523 313.194 328.176" stroke="white" stroke-width="1.48791" stroke-linecap="round" stroke-linejoin="round"/>
<path d="M316.444 346.313C315.704 351.054 320.968 376.291 320.932 402.827" stroke="white" stroke-width="1.48791" stroke-linecap="round" stroke-linejoin="round"/>
<path d="M449.451 311.865C471.708 322.272 474.352 354.293 453.357 392.579C438.523 419.6 418.049 459.5 405.095 462.175C392.141 464.85 379.503 457.344 379.503 457.344C379.503 457.344 368.587 456.87 365.288 449.646C356.264 429.905 379.2 404.961 388.175 410.932C388.175 410.932 416.994 352.612 422.246 348.932" fill="#263238"/>
<path d="M363.226 437.648C360.279 424.024 383.324 407.952 388.176 410.931C388.176 410.931 405.29 411.823 407.849 422.839" stroke="white" stroke-width="1.48791" stroke-linecap="round" stroke-linejoin="round"/>
<path d="M425.921 440.549C435.939 424.103 453.357 392.579 453.357 392.579" stroke="white" stroke-width="1.48791" stroke-linecap="round" stroke-linejoin="round"/>
<path d="M388.176 410.931C388.176 410.931 400.171 404.249 409.135 410.57" stroke="white" stroke-width="1.48791" stroke-linecap="round" stroke-linejoin="round"/>
<path d="M392.275 402.816C392.275 402.816 398.898 389.272 405.617 376.856C412.337 364.44 427.716 346.054 434.108 345.162" stroke="white" stroke-width="1.48791" stroke-linecap="round" stroke-linejoin="round"/>
<path d="M265.866 427.162C264.426 427.097 263.018 426.738 261.743 426.112C241.123 416.101 225.089 399.554 215.434 387.68C211.68 383.142 208.225 378.396 205.088 373.47L210.037 353.74C210.037 353.74 214.694 365.027 233.409 376.122C252.124 387.217 274.357 390.874 281.549 402.082C287.917 411.846 276.698 427.647 265.866 427.162Z" fill="white"/>
<path opacity="0.4" d="M265.866 427.162C265.636 425.735 265.229 424.337 264.654 422.997C260.323 412.907 234.125 392.85 234.125 392.85C227.89 392.669 221.038 390.254 215.458 387.68C211.696 383.143 208.233 378.397 205.088 373.47L210.037 353.74C210.037 353.74 214.694 365.027 233.409 376.122C252.124 387.217 274.357 390.874 281.549 402.082C287.917 411.846 276.698 427.647 265.866 427.162Z" fill="#19A89D"/>
<path d="M265.866 427.162C264.426 427.097 263.018 426.738 261.743 426.112C241.123 416.101 225.089 399.554 215.434 387.68C211.68 383.142 208.225 378.396 205.088 373.47L210.037 353.74C210.037 353.74 214.694 365.027 233.409 376.122C252.124 387.217 274.357 390.874 281.549 402.082C287.917 411.846 276.698 427.647 265.866 427.162Z" stroke="#263238" stroke-width="1.48791" stroke-linecap="round" stroke-linejoin="round"/>
<path d="M219.17 372.274C219.17 372.274 216.611 382.793 209.867 380.434C206.228 379.159 199.218 369.046 197.896 363.944L219.17 372.274Z" fill="white" stroke="#263238" stroke-width="1.48791" stroke-linecap="round" stroke-linejoin="round"/>
<path d="M189.441 307.497L194.948 304.856C194.948 304.856 210.51 304.98 220.164 312.283C228.934 318.92 233.385 329.315 233.385 329.315C233.385 329.315 267.455 311.809 302.254 321.854L316.444 395.457L251.202 399.43L210.485 363.436L189.441 307.497Z" fill="white" stroke="#263238" stroke-width="1.48791" stroke-linecap="round" stroke-linejoin="round"/>
<path d="M320.932 398.403C320.932 398.403 313.279 398.189 303.042 398.505C287.565 398.956 266.182 400.581 256.406 405.875L255.945 405.728L246.994 402.816L246.812 402.568C245.162 400.311 231.857 382.533 212.851 375.298L185.973 305.409C185.973 305.409 213.869 306.538 229.116 329.992L236.769 332.566C236.769 332.566 282.314 320.015 307.809 324.529L320.932 398.403Z" fill="#19A89D"/>
<path opacity="0.3" d="M246.812 402.579C245.162 400.322 231.857 382.545 212.851 375.31L185.973 305.421C185.973 305.421 213.869 306.549 229.116 330.004L246.812 402.579Z" fill="black" fill-opacity="0.7"/>
<path opacity="0.3" d="M303.043 398.504C287.566 398.955 266.182 400.581 256.406 405.874L255.946 405.728L238.067 335.093C238.067 335.093 252.695 332.035 257.195 333.581C257.183 333.604 286.923 354.022 303.043 398.504Z" fill="black" fill-opacity="0.7"/>
<path d="M320.932 398.403C320.932 398.403 313.279 398.189 303.042 398.505C287.565 398.956 266.182 400.581 256.406 405.875L255.945 405.728L246.994 402.816L246.812 402.568C245.162 400.311 231.857 382.533 212.851 375.298L185.973 305.409C185.973 305.409 213.869 306.538 229.116 329.992L236.769 332.566C236.769 332.566 282.314 320.015 307.809 324.529L320.932 398.403Z" stroke="#263238" stroke-width="1.48791" stroke-linecap="round" stroke-linejoin="round"/>
<path d="M236.793 332.577L254.344 400.333" stroke="#263238" stroke-width="1.48791" stroke-linecap="round" stroke-linejoin="round"/>
<path d="M246.994 402.827L229.94 335.116" stroke="#263238" stroke-width="1.48791" stroke-linecap="round" stroke-linejoin="round"/>
<path d="M203.669 373.526C199.776 372.522 191.928 350.749 195.518 341.37C195.518 341.37 199.788 334.473 201.583 333.999C204.3 333.266 215.264 333.48 214.731 335.196C213.518 339.169 205.1 339.101 205.1 339.101L202.371 343.751L202.48 346.314C202.48 346.314 206.447 343.627 207.902 343.706C208.654 343.706 212.535 345.512 215.616 347.025C218.248 348.323 219.861 349.034 219.255 350.208C217.302 354.113 208.994 351.336 208.994 351.336L205.864 355.727C205.864 355.727 208.885 356.212 210.207 356.348C211.529 356.483 222.505 363.289 222.178 364.136C220.88 367.454 210.473 363.865 210.473 363.865L208.63 365.298C208.63 365.298 216.295 367.138 217.12 367.409C218.333 367.827 223.003 371.168 222.93 371.551C222.372 374.486 215.932 372.33 215.932 372.33L210.292 372.116C209.432 372.821 208.399 373.317 207.284 373.56" fill="white"/>
<path d="M203.669 373.526C199.776 372.522 191.928 350.749 195.518 341.37C195.518 341.37 199.788 334.473 201.583 333.999C204.3 333.266 215.264 333.48 214.731 335.196C213.518 339.169 205.1 339.101 205.1 339.101L202.371 343.751L202.48 346.314C202.48 346.314 206.447 343.627 207.902 343.706C208.654 343.706 212.535 345.512 215.616 347.025C218.248 348.323 219.861 349.034 219.255 350.208C217.302 354.113 208.994 351.336 208.994 351.336L205.864 355.727C205.864 355.727 208.885 356.212 210.207 356.348C211.529 356.483 222.505 363.289 222.178 364.136C220.88 367.454 210.473 363.865 210.473 363.865L208.63 365.298C208.63 365.298 216.295 367.138 217.12 367.409C218.333 367.827 223.003 371.168 222.93 371.551C222.372 374.486 215.932 372.33 215.932 372.33L210.292 372.116C209.432 372.821 208.399 373.317 207.284 373.56" stroke="#263238" stroke-width="1.48791" stroke-linecap="round" stroke-linejoin="round"/>
<path d="M202.432 346.313C202.432 346.313 198.793 349.157 197.86 349.981C196.926 350.805 197.156 353.424 197.156 353.424" stroke="#263238" stroke-width="1.48791" stroke-linecap="round" stroke-linejoin="round"/>
<path d="M199.8 359.203C199.8 362.069 201.862 363.808 202.808 364.733C203.754 365.659 201.292 368.176 204.021 369.982" stroke="#263238" stroke-width="1.48791" stroke-linecap="round" stroke-linejoin="round"/>
<path d="M379.454 450.075C371.753 452.027 363.384 439.431 353.171 425.683C346.427 416.654 338.883 407.026 330.211 400.852C329.519 400.366 328.816 399.892 328.112 399.441L333.182 375.738C343.71 380.874 350.236 389.102 361.164 397.556C378.751 411.179 394.337 419.543 398.655 425.57C402.973 431.598 392.651 446.722 379.454 450.075Z" fill="white"/>
<path opacity="0.4" d="M353.171 425.672C346.427 416.643 338.883 407.015 330.211 400.841C331.354 400.895 332.497 400.734 333.571 400.367C333.571 400.367 347.277 410.717 353.171 425.672Z" fill="#19A89D"/>
<path d="M379.454 450.075C371.753 452.027 363.384 439.431 353.171 425.683C346.427 416.654 338.883 407.026 330.211 400.852C329.519 400.366 328.816 399.892 328.112 399.441L333.182 375.738C343.71 380.874 350.236 389.102 361.164 397.556C378.751 411.179 394.337 419.543 398.655 425.57C402.973 431.598 392.651 446.722 379.454 450.075Z" stroke="#263238" stroke-width="1.48791" stroke-linecap="round" stroke-linejoin="round"/>
<path d="M336.021 398.505C335.494 399.381 334.626 400.036 333.595 400.333C333.321 400.433 333.042 400.52 332.758 400.593H332.528C324.389 402.568 306.074 398.46 306.074 398.46C306.074 398.46 294.079 393.155 293.351 391.902C292.844 390.909 292.395 389.892 292.005 388.854L291.677 387.963C291.677 387.963 287.359 385.705 286.826 383.944C286.292 382.184 285.382 381.687 288.039 381.371C290.695 381.055 305.019 381.371 305.019 381.371L289.433 375.457C289.433 375.457 279.112 370.614 278.153 368.91C277.195 367.206 275.994 366.077 281.271 366.754C286.547 367.431 298.069 370.547 298.069 370.547L307.154 372.341L298.13 368.763C298.13 368.763 280.373 366.766 283.733 361.63H293.812C299.522 361.865 305.201 362.537 310.793 363.639C313.728 364.474 333.134 375.694 333.134 375.694" fill="white"/>
<path opacity="0.4" d="M332.504 400.637C324.365 402.613 306.05 398.504 306.05 398.504C306.05 398.504 294.055 393.199 293.327 391.946C292.82 390.954 292.37 389.936 291.98 388.899L306.705 390.4C306.19 391.263 305.92 392.234 305.92 393.222C305.92 394.209 306.19 395.18 306.705 396.044C308.343 398.786 326.997 401.563 332.504 400.637Z" fill="#19A89D"/>
<path d="M336.021 398.505C335.494 399.381 334.626 400.036 333.595 400.333C333.321 400.433 333.042 400.52 332.758 400.593H332.528C324.389 402.568 306.074 398.46 306.074 398.46C306.074 398.46 294.079 393.155 293.351 391.902C292.844 390.909 292.395 389.892 292.005 388.854L291.677 387.963C291.677 387.963 287.359 385.705 286.826 383.944C286.292 382.184 285.382 381.687 288.039 381.371C290.695 381.055 305.019 381.371 305.019 381.371L289.433 375.457C289.433 375.457 279.112 370.614 278.153 368.91C277.195 367.206 275.994 366.077 281.271 366.754C286.547 367.431 298.069 370.547 298.069 370.547L307.154 372.341L298.13 368.763C298.13 368.763 280.373 366.766 283.733 361.63H293.812C299.522 361.865 305.201 362.537 310.793 363.639C313.728 364.474 333.134 375.694 333.134 375.694" stroke="#263238" stroke-width="1.48791" stroke-linecap="round" stroke-linejoin="round"/>
<path d="M291.653 388.008L309.374 390.434" stroke="#263238" stroke-width="1.48791" stroke-linecap="round" stroke-linejoin="round"/>
<path d="M115.006 438.506L159.422 450.922L240.687 433.664C240.687 433.664 191.055 420.548 190.594 420.875C190.133 421.203 115.006 438.506 115.006 438.506Z" fill="#19A89D"/>
<path opacity="0.3" d="M115.006 438.506L159.422 450.922L240.687 433.664C240.687 433.664 191.055 420.548 190.594 420.875C190.133 421.203 115.006 438.506 115.006 438.506Z" fill="black" fill-opacity="0.7"/>
<path d="M115.006 438.506L159.422 450.922L240.687 433.664C240.687 433.664 191.055 420.548 190.594 420.875C190.133 421.203 115.006 438.506 115.006 438.506Z" stroke="#263238" stroke-width="1.48791" stroke-linecap="round" stroke-linejoin="round"/>
<path d="M115.649 423.945C112.532 424.148 111.755 434.6 115.006 438.505L186.761 424.645L192.511 411.981L115.649 423.945Z" fill="#19A89D"/>
<path opacity="0.3" d="M115.649 423.945C112.532 424.148 111.755 434.6 115.006 438.505L186.761 424.645L192.511 411.981L115.649 423.945Z" fill="black" fill-opacity="0.7"/>
<path d="M115.649 423.945C112.532 424.148 111.755 434.6 115.006 438.505L186.761 424.645L192.511 411.981L115.649 423.945Z" stroke="#263238" stroke-width="1.48791" stroke-linecap="round" stroke-linejoin="round"/>
<path d="M237.206 423.799C237.206 423.799 236.139 429.295 236.83 432.681L159.338 449.002L118.487 437.806C118.487 437.806 114.242 430.819 117.941 425.39L192.583 413.595L237.206 423.799Z" fill="white" stroke="#263238" stroke-width="1.48791" stroke-linecap="round" stroke-linejoin="round"/>
<path d="M115.648 423.945L192.51 411.981L240.238 423.234L159.968 438.122L115.648 423.945Z" fill="#19A89D" stroke="#263238" stroke-width="1.48791" stroke-linecap="round" stroke-linejoin="round"/>
<path d="M118.378 430.627L159.022 441.892L225.55 429.431" stroke="#263238" stroke-width="1.48791" stroke-linecap="round" stroke-linejoin="round"/>
<path d="M236.611 430.582L165.074 444.781" stroke="#263238" stroke-width="1.48791" stroke-linecap="round" stroke-linejoin="round"/>
<path d="M119.336 435.064C119.955 435.12 149.974 443.721 149.974 443.721" stroke="#263238" stroke-width="1.48791" stroke-linecap="round" stroke-linejoin="round"/>
<path d="M230.766 427.975L236.454 427.117" stroke="#263238" stroke-width="1.48791" stroke-linecap="round" stroke-linejoin="round"/>
<path d="M157.7 445.809L154.68 445.177" stroke="#263238" stroke-width="1.48791" stroke-linecap="round" stroke-linejoin="round"/>
<path d="M117.941 425.39C119.531 427.095 120.452 429.253 120.551 431.509C120.65 433.765 119.922 435.986 118.486 437.806C117.157 435.991 116.402 433.865 116.305 431.671C116.209 429.476 116.775 427.3 117.941 425.39Z" fill="#263238"/>
<path opacity="0.3" d="M117.941 425.39C119.531 427.095 120.452 429.253 120.551 431.509C120.65 433.765 119.922 435.986 118.486 437.806C117.157 435.991 116.402 433.865 116.305 431.671C116.209 429.476 116.775 427.3 117.941 425.39Z" fill="white" fill-opacity="0.7"/>
<path d="M117.941 425.39C119.531 427.095 120.452 429.253 120.551 431.509C120.65 433.765 119.922 435.986 118.486 437.806C117.157 435.991 116.402 433.865 116.305 431.671C116.209 429.476 116.775 427.3 117.941 425.39Z" stroke="#263238" stroke-width="1.48791" stroke-linecap="round" stroke-linejoin="round"/>
<path d="M283.951 441.891L361.516 444.848L353.96 469.691L258.541 466.305L283.951 441.891Z" fill="white"/>
<path opacity="0.4" d="M283.951 441.891L361.516 444.848L353.96 469.691L258.541 466.305L283.951 441.891Z" fill="#19A89D"/>
<path d="M283.951 441.891L361.516 444.848L353.96 469.691L258.541 466.305L283.951 441.891Z" stroke="#263238" stroke-width="1.48791" stroke-linecap="round" stroke-linejoin="round"/>
</svg>
