<svg width="107" height="80" viewBox="0 0 107 80" fill="none" xmlns="http://www.w3.org/2000/svg">
<path fill-rule="evenodd" clip-rule="evenodd" d="M100.155 80C100.155 80 106.832 80 106.832 73.3333C106.832 66.6667 100.155 46.6667 73.4472 46.6667C46.7391 46.6667 40.0621 66.6667 40.0621 73.3333C40.0621 80 46.7391 80 46.7391 80H100.155ZM46.886 73.3333C46.8367 73.3265 46.7877 73.3176 46.7391 73.3067C46.7458 71.5467 47.8542 66.44 51.8137 61.84C55.4994 57.5267 61.9761 53.3333 73.4472 53.3333C84.9117 53.3333 91.3884 57.5333 95.0807 61.84C99.0402 66.44 100.142 71.5533 100.155 73.3067L100.102 73.32C100.071 73.3252 100.04 73.3297 100.008 73.3333H46.886ZM73.4472 33.3333C76.9889 33.3333 80.3856 31.9286 82.8899 29.4281C85.3943 26.9276 86.8012 23.5362 86.8012 20C86.8012 16.4638 85.3943 13.0724 82.8899 10.5719C80.3856 8.07142 76.9889 6.66667 73.4472 6.66667C69.9055 6.66667 66.5089 8.07142 64.0045 10.5719C61.5001 13.0724 60.0932 16.4638 60.0932 20C60.0932 23.5362 61.5001 26.9276 64.0045 29.4281C66.5089 31.9286 69.9055 33.3333 73.4472 33.3333ZM93.4783 20C93.4783 22.6264 92.9602 25.2272 91.9535 27.6537C90.9468 30.0802 89.4714 32.285 87.6113 34.1421C85.7513 35.9993 83.543 37.4725 81.1128 38.4776C78.6825 39.4827 76.0777 40 73.4472 40C70.8167 40 68.2119 39.4827 65.7816 38.4776C63.3514 37.4725 61.1432 35.9993 59.2831 34.1421C57.4231 32.285 55.9476 30.0802 54.9409 27.6537C53.9343 25.2272 53.4161 22.6264 53.4161 20C53.4161 14.6957 55.5266 9.60859 59.2831 5.85786C63.0397 2.10714 68.1346 0 73.4472 0C78.7598 0 83.8548 2.10714 87.6113 5.85786C91.3679 9.60859 93.4783 14.6957 93.4783 20ZM32.8509 53.3333L32.8465 53.3401L32.8509 53.34V53.3333Z" fill="#E6E6E6"/>
<path fill-rule="evenodd" clip-rule="evenodd" d="M10.0155 23.3333C10.0155 18.029 12.1259 12.9419 15.8825 9.1912C19.639 5.44047 24.734 3.33333 30.0466 3.33333C35.3591 3.33333 40.4541 5.44047 44.2107 9.1912C47.9672 12.9419 50.0776 18.029 50.0776 23.3333C50.0776 28.6377 47.9672 33.7247 44.2107 37.4755C40.4541 41.2262 35.3591 43.3333 30.0466 43.3333C24.734 43.3333 19.639 41.2262 15.8825 37.4755C12.1259 33.7247 10.0155 28.6377 10.0155 23.3333ZM20.6039 13.9052C23.1082 11.4048 26.5049 10 30.0466 10C33.5883 10 36.9849 11.4048 39.4893 13.9052C41.9937 16.4057 43.4006 19.7971 43.4006 23.3333C43.4006 26.8696 41.9937 30.2609 39.4893 32.7614C36.9849 35.2619 33.5883 36.6667 30.0466 36.6667C26.5049 36.6667 23.1082 35.2619 20.6039 32.7614C18.0995 30.2609 16.6925 26.8696 16.6925 23.3333C16.6925 19.7971 18.0995 16.4057 20.6039 13.9052Z" fill="#D7E026"/>
<path fill-rule="evenodd" clip-rule="evenodd" d="M46.3118 48.5333C43.6409 47.6936 40.8876 47.1416 38.0991 46.8867C36.5322 46.7379 34.959 46.6645 33.3851 46.6667C6.67702 46.6667 0 66.6667 0 73.3333C0 77.78 2.22345 80 6.67702 80H34.8273C33.8375 77.9188 33.3439 75.6369 33.3851 73.3333C33.3851 66.6 35.9023 59.72 40.663 53.9733C42.2856 52.0133 44.1752 50.18 46.3118 48.5333ZM26.7081 73.3333H6.67702C6.67702 71.6 7.77205 66.4667 11.7516 61.84C15.39 57.6006 21.712 53.4678 32.8465 53.3401L32.8509 53.3333V53.34L32.8465 53.3401C28.8976 59.2671 26.7644 66.2148 26.7081 73.3333Z" fill="#D7E026"/>
</svg>
