<svg width="32" height="32" viewBox="0 0 32 32" fill="none" xmlns="http://www.w3.org/2000/svg">
<path d="M31.5237 6.58269C30.4104 7.07602 29.2144 7.40935 27.957 7.56002C29.2544 6.78374 30.2249 5.56198 30.6877 4.12269C29.4688 4.84667 28.1348 5.35628 26.7437 5.62935C25.8082 4.63051 24.5691 3.96846 23.2188 3.74599C21.8685 3.52352 20.4825 3.75308 19.276 4.39902C18.0695 5.04497 17.1101 6.07117 16.5466 7.31829C15.9831 8.56542 15.8471 9.96369 16.1597 11.296C13.6899 11.172 11.2739 10.5301 9.06826 9.41189C6.86265 8.2937 4.91681 6.72424 3.35702 4.80535C2.82369 5.72535 2.51702 6.79202 2.51702 7.92802C2.51643 8.95068 2.76827 9.95768 3.2502 10.8597C3.73212 11.7617 4.42924 12.5307 5.27969 13.0987C4.29339 13.0673 3.32885 12.8008 2.46636 12.3214V12.4014C2.46626 13.8357 2.9624 15.2259 3.8706 16.336C4.7788 17.4462 6.04312 18.2079 7.44902 18.492C6.53407 18.7396 5.57481 18.7761 4.64369 18.5987C5.04035 19.8328 5.81302 20.9121 6.85351 21.6853C7.89401 22.4585 9.15025 22.8869 10.4464 22.9107C8.24613 24.6379 5.52887 25.5748 2.73169 25.5707C2.2362 25.5708 1.74113 25.5419 1.24902 25.484C4.08833 27.3096 7.39348 28.2784 10.769 28.2747C22.1957 28.2747 28.4424 18.8107 28.4424 10.6027C28.4424 10.336 28.4357 10.0667 28.4237 9.80002C29.6387 8.92132 30.6876 7.83322 31.521 6.58669L31.5237 6.58269Z" fill="#E9E9E9"/>
</svg>
