<svg width="65" height="64" viewBox="0 0 65 64" fill="none" xmlns="http://www.w3.org/2000/svg">
<path d="M37.7771 10.5707C37.8658 10.596 37.9511 10.6067 38.0404 10.6067C38.4318 10.6067 38.7911 10.354 38.9124 9.95866L39.9698 6.43132C40.1158 5.95066 39.8418 5.44532 39.3571 5.29932C38.8771 5.15666 38.3678 5.42732 38.2218 5.91132L37.1644 9.43532C37.0224 9.91599 37.2964 10.4247 37.7771 10.5707Z" fill="#19A89D"/>
<path d="M43.7852 12.0267C43.9199 12.1014 44.0699 12.1374 44.2159 12.1374C44.5399 12.1374 44.8525 11.966 45.0199 11.664L46.7819 8.41402C47.0239 7.96869 46.8605 7.41735 46.4152 7.17535C45.9739 6.93669 45.4225 7.10002 45.1805 7.54202L43.4185 10.7914C43.1765 11.2327 43.3399 11.788 43.7852 12.0267Z" fill="#19A89D"/>
<path d="M50.6051 14.9993C50.8651 14.9993 51.1245 14.8886 51.3025 14.6753L53.6985 11.8306C54.0258 11.4466 53.9758 10.87 53.5918 10.546C53.2038 10.222 52.6305 10.272 52.3065 10.656L49.9111 13.5006C49.5871 13.8846 49.6371 14.4613 50.0211 14.7853C50.1925 14.928 50.3985 14.9993 50.6051 14.9993Z" fill="#19A89D"/>
<path d="M56.1653 19.5267C56.372 19.5267 56.578 19.4553 56.7493 19.3133L59.572 16.9427C59.956 16.6187 60.006 16.0453 59.682 15.6573C59.358 15.2733 58.7853 15.2267 58.4007 15.5473L55.578 17.918C55.1933 18.242 55.144 18.8187 55.468 19.2027C55.6453 19.4167 55.9053 19.5267 56.1653 19.5267Z" fill="#19A89D"/>
<path d="M13.5636 14.6753C13.7416 14.8886 14.0016 14.9993 14.2616 14.9993C14.4676 14.9993 14.6743 14.928 14.845 14.7853C15.2296 14.4613 15.2796 13.8846 14.9556 13.5006L12.5596 10.656C12.2356 10.272 11.659 10.222 11.275 10.546C10.8903 10.87 10.8403 11.4466 11.1683 11.8306L13.5636 14.6753Z" fill="#19A89D"/>
<path d="M19.8464 11.664C20.0137 11.966 20.3271 12.1374 20.6511 12.1374C20.7971 12.1374 20.9464 12.1014 21.0817 12.0267C21.5264 11.788 21.6904 11.2327 21.4484 10.7914L19.6864 7.54202C19.4444 7.10002 18.8924 6.93669 18.4511 7.17535C18.0064 7.41735 17.8424 7.96869 18.0844 8.41402L19.8464 11.664Z" fill="#19A89D"/>
<path d="M8.14595 19.338C8.30995 19.4667 8.50595 19.5267 8.70128 19.5267C8.97595 19.5267 9.24261 19.406 9.42395 19.1747C9.73061 18.776 9.65928 18.2027 9.26061 17.8927L6.56595 15.814C6.16728 15.5047 5.59395 15.5793 5.28461 15.978C4.97795 16.3767 5.05328 16.946 5.44795 17.252L8.14595 19.338Z" fill="#19A89D"/>
<path d="M25.955 9.95866C26.0756 10.354 26.435 10.6067 26.827 10.6067C26.9156 10.6067 27.001 10.596 27.0903 10.5707C27.571 10.4247 27.845 9.91599 27.7023 9.43532L26.645 5.91132C26.499 5.42732 25.9936 5.15666 25.5096 5.29932C25.0256 5.44532 24.7516 5.95066 24.8976 6.43132L25.955 9.95866Z" fill="#19A89D"/>
<path d="M32.4338 10.1546C32.9358 10.1546 33.3451 9.74531 33.3451 9.24331V5.59798C33.3451 5.09598 32.9358 4.68665 32.4338 4.68665C31.9318 4.68665 31.5225 5.09598 31.5225 5.59798V9.24331C31.5225 9.74531 31.9318 10.1546 32.4338 10.1546Z" fill="#19A89D"/>
<path d="M20.0457 38.4607C15.1724 36.2853 10.7304 32.808 7.16704 28.3793C8.95037 26.1587 10.951 24.1793 13.1117 22.4813C13.5104 22.168 13.5777 21.5947 13.2684 21.2C12.955 20.8013 12.3857 20.7333 11.987 21.0467C9.52704 22.976 7.27037 25.258 5.2877 27.8207C5.0317 28.148 5.0317 28.6107 5.2877 28.9387C9.1037 33.872 13.9517 37.7413 19.3057 40.126C19.4264 40.1793 19.551 40.2047 19.6757 40.2047C20.0244 40.2047 20.3557 40.0053 20.5084 39.6633C20.7117 39.204 20.505 38.6667 20.0457 38.4607Z" fill="#19A89D"/>
<path d="M29.8514 34.1807C27.9541 33.2767 26.7261 31.34 26.7261 29.2467C26.7261 26.232 29.1788 23.7794 32.1934 23.7794C32.3541 23.7794 32.5101 23.7867 32.6708 23.8007C32.3608 24.338 32.1934 24.954 32.1934 25.602C32.1934 27.6134 33.8274 29.2467 35.8388 29.2467C36.4828 29.2467 37.1021 29.0794 37.6401 28.77C37.6541 28.93 37.6614 29.0867 37.6614 29.2467C37.6614 31.34 36.4328 33.2767 34.5361 34.1807C34.2188 34.3334 34.0161 34.6507 34.0161 35.0027V42.0047H30.3708V35.0027C30.3708 34.6507 30.1681 34.3334 29.8514 34.1807ZM42.2174 44.738C42.2174 45.24 41.8081 45.6494 41.3061 45.6494H23.0808C22.5794 45.6494 22.1694 45.24 22.1694 44.738C22.1694 44.2367 22.5794 43.8274 23.0808 43.8274H41.3061C41.8081 43.8274 42.2174 44.2367 42.2174 44.738ZM32.1934 58.4074C28.1748 58.4074 24.9034 55.136 24.9034 51.1174H39.4834C39.4834 55.136 36.2121 58.4074 32.1934 58.4074ZM59.3394 29.806C59.5954 29.478 59.5954 29.0154 59.3394 28.688C52.4408 19.7787 42.5448 14.6667 32.1934 14.6667C26.0321 14.6667 19.9448 16.4754 14.5881 19.896C14.1641 20.1667 14.0394 20.7327 14.3101 21.156C14.5808 21.5794 15.1468 21.704 15.5701 21.4334C17.9128 19.9347 20.4074 18.782 22.9848 17.956C19.7101 20.6294 17.6134 24.698 17.6134 29.2467C17.6134 33.7074 19.5994 37.822 23.0808 40.6094V42.0047C21.5714 42.0047 20.3474 43.2294 20.3474 44.738C20.3474 46.2474 21.5714 47.472 23.0808 47.472H41.3061C41.8081 47.472 42.2174 47.8814 42.2174 48.3834C42.2174 48.8854 41.8081 49.2947 41.3061 49.2947H23.0808C22.5794 49.2947 22.1694 49.704 22.1694 50.206C22.1694 50.708 22.5794 51.1174 23.0808 51.1174C23.0808 56.14 27.1674 60.23 32.1934 60.23C37.2194 60.23 41.3061 56.14 41.3061 51.1174C42.8154 51.1174 44.0401 49.8927 44.0401 48.3834C44.0401 47.6787 43.7661 47.0447 43.3281 46.5607C43.7661 46.0767 44.0401 45.4434 44.0401 44.738C44.0401 43.2294 42.8154 42.0047 41.3061 42.0047V40.6094C44.7874 37.822 46.7734 33.7074 46.7734 29.2467C46.7734 28.218 46.6601 27.1714 46.4321 26.136C46.3254 25.6414 45.8414 25.328 45.3501 25.438C44.8588 25.5447 44.5454 26.0294 44.6521 26.524C44.8514 27.4314 44.9514 28.35 44.9514 29.2467C44.9514 33.28 43.0894 36.996 39.8468 39.4347C39.6188 39.6054 39.4834 39.876 39.4834 40.164V42.0047H35.8388V35.5507C38.0708 34.2587 39.4834 31.842 39.4834 29.2467C39.4834 28.3854 39.3268 27.5274 39.0174 26.702C38.8961 26.374 38.6008 26.1467 38.2521 26.1147C37.8994 26.0787 37.5688 26.25 37.3868 26.5454C37.0528 27.0967 36.4721 27.4247 35.8388 27.4247C34.8348 27.4247 34.0161 26.606 34.0161 25.602C34.0161 24.968 34.3434 24.388 34.8954 24.0534C35.1908 23.872 35.3581 23.534 35.3261 23.1887C35.2941 22.8394 35.0661 22.544 34.7388 22.4234C33.9128 22.1134 33.0548 21.9567 32.1934 21.9567C28.1748 21.9567 24.9034 25.228 24.9034 29.2467C24.9034 31.842 26.3168 34.2587 28.5488 35.5507V42.0047H24.9034V40.164C24.9034 39.876 24.7681 39.6054 24.5408 39.4347C21.2974 36.996 19.4361 33.28 19.4361 29.2467C19.4361 22.2134 25.1601 16.4894 32.1934 16.4894C36.9454 16.4894 41.2741 19.1094 43.4881 23.3274C43.7234 23.772 44.2748 23.9434 44.7201 23.708C45.1648 23.4734 45.3354 22.9254 45.1008 22.48C44.1714 20.7074 42.9114 19.184 41.4234 17.9627C47.5034 19.928 53.0781 23.8007 57.4594 29.2467C53.8968 33.6754 49.4541 37.1527 44.5808 39.328C44.1221 39.534 43.9154 40.0714 44.1181 40.5307C44.2714 40.8727 44.6021 41.072 44.9514 41.072C45.0761 41.072 45.2001 41.0467 45.3214 40.9934C50.6748 38.6087 55.5194 34.7394 59.3394 29.806Z" fill="#19A89D"/>
<path d="M51.3025 40.778C50.9791 40.3933 50.4025 40.3467 50.0211 40.6707C49.6371 40.9947 49.5871 41.568 49.9111 41.956L52.3065 44.8C52.4878 45.0133 52.7445 45.124 53.0045 45.124C53.2105 45.124 53.4205 45.0527 53.5918 44.9107C53.9758 44.5827 54.0258 44.01 53.6985 43.6253L51.3025 40.778Z" fill="#19A89D"/>
<path d="M56.7493 36.1434C56.3647 35.8194 55.7913 35.8687 55.468 36.2534C55.144 36.6414 55.1933 37.2147 55.578 37.5387L58.4007 39.9094C58.5713 40.0514 58.778 40.1227 58.9847 40.1227C59.2447 40.1227 59.504 40.0127 59.682 39.7954C60.006 39.4107 59.956 38.834 59.572 38.51L56.7493 36.1434Z" fill="#19A89D"/>
<path d="M13.5636 40.778L11.1683 43.6253C10.8403 44.01 10.8903 44.5827 11.275 44.9107C11.4456 45.0527 11.6556 45.124 11.8623 45.124C12.1223 45.124 12.3783 45.0133 12.5596 44.8L14.9556 41.956C15.2796 41.568 15.2296 40.9947 14.845 40.6707C14.4643 40.3467 13.8876 40.3967 13.5636 40.778Z" fill="#19A89D"/>
<path d="M8.14595 36.118L5.44795 38.2007C5.05328 38.5067 4.97795 39.08 5.28461 39.4787C5.46595 39.71 5.73661 39.8347 6.00661 39.8347C6.20261 39.8347 6.39861 39.77 6.56595 39.642L9.26061 37.5633C9.65928 37.254 9.73061 36.6807 9.42395 36.282C9.11461 35.8833 8.54128 35.812 8.14595 36.118Z" fill="#19A89D"/>
</svg>
